<?xml version="1.0" encoding="utf-8"?>
<svg xmlns="http://www.w3.org/2000/svg" xmlns:xlink="http://www.w3.org/1999/xlink" width="600" height="400" viewBox="0 0 2400 1600">
<defs>
  <clipPath id="clip930">
    <rect x="0" y="0" width="2400" height="1600"/>
  </clipPath>
</defs>
<path clip-path="url(#clip930)" d="M0 1600 L2400 1600 L2400 0 L0 0  Z" fill="#ffffff" fill-rule="evenodd" fill-opacity="1"/>
<defs>
  <clipPath id="clip931">
    <rect x="480" y="0" width="1681" height="1600"/>
  </clipPath>
</defs>
<path clip-path="url(#clip930)" d="M147.478 1486.45 L2352.76 1486.45 L2352.76 47.2441 L147.478 47.2441  Z" fill="#ffffff" fill-rule="evenodd" fill-opacity="1"/>
<defs>
  <clipPath id="clip932">
    <rect x="147" y="47" width="2206" height="1440"/>
  </clipPath>
</defs>
<polyline clip-path="url(#clip932)" style="stroke:#000000; stroke-linecap:round; stroke-linejoin:round; stroke-width:2; stroke-opacity:0.1; fill:none" points="209.891,1486.45 209.891,47.2441 "/>
<polyline clip-path="url(#clip932)" style="stroke:#000000; stroke-linecap:round; stroke-linejoin:round; stroke-width:2; stroke-opacity:0.1; fill:none" points="730.004,1486.45 730.004,47.2441 "/>
<polyline clip-path="url(#clip932)" style="stroke:#000000; stroke-linecap:round; stroke-linejoin:round; stroke-width:2; stroke-opacity:0.1; fill:none" points="1250.12,1486.45 1250.12,47.2441 "/>
<polyline clip-path="url(#clip932)" style="stroke:#000000; stroke-linecap:round; stroke-linejoin:round; stroke-width:2; stroke-opacity:0.1; fill:none" points="1770.23,1486.45 1770.23,47.2441 "/>
<polyline clip-path="url(#clip932)" style="stroke:#000000; stroke-linecap:round; stroke-linejoin:round; stroke-width:2; stroke-opacity:0.1; fill:none" points="2290.34,1486.45 2290.34,47.2441 "/>
<polyline clip-path="url(#clip930)" style="stroke:#000000; stroke-linecap:round; stroke-linejoin:round; stroke-width:4; stroke-opacity:1; fill:none" points="147.478,1486.45 2352.76,1486.45 "/>
<polyline clip-path="url(#clip930)" style="stroke:#000000; stroke-linecap:round; stroke-linejoin:round; stroke-width:4; stroke-opacity:1; fill:none" points="209.891,1486.45 209.891,1467.55 "/>
<polyline clip-path="url(#clip930)" style="stroke:#000000; stroke-linecap:round; stroke-linejoin:round; stroke-width:4; stroke-opacity:1; fill:none" points="730.004,1486.45 730.004,1467.55 "/>
<polyline clip-path="url(#clip930)" style="stroke:#000000; stroke-linecap:round; stroke-linejoin:round; stroke-width:4; stroke-opacity:1; fill:none" points="1250.12,1486.45 1250.12,1467.55 "/>
<polyline clip-path="url(#clip930)" style="stroke:#000000; stroke-linecap:round; stroke-linejoin:round; stroke-width:4; stroke-opacity:1; fill:none" points="1770.23,1486.45 1770.23,1467.55 "/>
<polyline clip-path="url(#clip930)" style="stroke:#000000; stroke-linecap:round; stroke-linejoin:round; stroke-width:4; stroke-opacity:1; fill:none" points="2290.34,1486.45 2290.34,1467.55 "/>
<path clip-path="url(#clip930)" d="M187.276 1517.37 Q183.665 1517.37 181.836 1520.93 Q180.03 1524.47 180.03 1531.6 Q180.03 1538.71 181.836 1542.27 Q183.665 1545.82 187.276 1545.82 Q190.91 1545.82 192.716 1542.27 Q194.544 1538.71 194.544 1531.6 Q194.544 1524.47 192.716 1520.93 Q190.91 1517.37 187.276 1517.37 M187.276 1513.66 Q193.086 1513.66 196.142 1518.27 Q199.22 1522.85 199.22 1531.6 Q199.22 1540.33 196.142 1544.94 Q193.086 1549.52 187.276 1549.52 Q181.466 1549.52 178.387 1544.94 Q175.331 1540.33 175.331 1531.6 Q175.331 1522.85 178.387 1518.27 Q181.466 1513.66 187.276 1513.66 Z" fill="#000000" fill-rule="nonzero" fill-opacity="1" /><path clip-path="url(#clip930)" d="M207.438 1542.97 L212.322 1542.97 L212.322 1548.85 L207.438 1548.85 L207.438 1542.97 Z" fill="#000000" fill-rule="nonzero" fill-opacity="1" /><path clip-path="url(#clip930)" d="M232.507 1517.37 Q228.896 1517.37 227.067 1520.93 Q225.262 1524.47 225.262 1531.6 Q225.262 1538.71 227.067 1542.27 Q228.896 1545.82 232.507 1545.82 Q236.141 1545.82 237.947 1542.27 Q239.776 1538.71 239.776 1531.6 Q239.776 1524.47 237.947 1520.93 Q236.141 1517.37 232.507 1517.37 M232.507 1513.66 Q238.317 1513.66 241.373 1518.27 Q244.451 1522.85 244.451 1531.6 Q244.451 1540.33 241.373 1544.94 Q238.317 1549.52 232.507 1549.52 Q226.697 1549.52 223.618 1544.94 Q220.563 1540.33 220.563 1531.6 Q220.563 1522.85 223.618 1518.27 Q226.697 1513.66 232.507 1513.66 Z" fill="#000000" fill-rule="nonzero" fill-opacity="1" /><path clip-path="url(#clip930)" d="M701.74 1544.91 L718.06 1544.91 L718.06 1548.85 L696.115 1548.85 L696.115 1544.91 Q698.777 1542.16 703.361 1537.53 Q707.967 1532.88 709.148 1531.53 Q711.393 1529.01 712.273 1527.27 Q713.176 1525.51 713.176 1523.82 Q713.176 1521.07 711.231 1519.33 Q709.31 1517.6 706.208 1517.6 Q704.009 1517.6 701.555 1518.36 Q699.125 1519.13 696.347 1520.68 L696.347 1515.95 Q699.171 1514.82 701.625 1514.24 Q704.078 1513.66 706.115 1513.66 Q711.486 1513.66 714.68 1516.35 Q717.875 1519.03 717.875 1523.52 Q717.875 1525.65 717.064 1527.57 Q716.277 1529.47 714.171 1532.07 Q713.592 1532.74 710.49 1535.95 Q707.389 1539.15 701.74 1544.91 Z" fill="#000000" fill-rule="nonzero" fill-opacity="1" /><path clip-path="url(#clip930)" d="M727.875 1542.97 L732.759 1542.97 L732.759 1548.85 L727.875 1548.85 L727.875 1542.97 Z" fill="#000000" fill-rule="nonzero" fill-opacity="1" /><path clip-path="url(#clip930)" d="M742.99 1514.29 L761.347 1514.29 L761.347 1518.22 L747.273 1518.22 L747.273 1526.7 Q748.291 1526.35 749.31 1526.19 Q750.328 1526 751.347 1526 Q757.134 1526 760.513 1529.17 Q763.893 1532.34 763.893 1537.76 Q763.893 1543.34 760.421 1546.44 Q756.948 1549.52 750.629 1549.52 Q748.453 1549.52 746.185 1549.15 Q743.939 1548.78 741.532 1548.04 L741.532 1543.34 Q743.615 1544.47 745.837 1545.03 Q748.06 1545.58 750.536 1545.58 Q754.541 1545.58 756.879 1543.48 Q759.217 1541.37 759.217 1537.76 Q759.217 1534.15 756.879 1532.04 Q754.541 1529.94 750.536 1529.94 Q748.661 1529.94 746.786 1530.35 Q744.935 1530.77 742.99 1531.65 L742.99 1514.29 Z" fill="#000000" fill-rule="nonzero" fill-opacity="1" /><path clip-path="url(#clip930)" d="M1217.28 1514.29 L1235.64 1514.29 L1235.64 1518.22 L1221.56 1518.22 L1221.56 1526.7 Q1222.58 1526.35 1223.6 1526.19 Q1224.62 1526 1225.64 1526 Q1231.42 1526 1234.8 1529.17 Q1238.18 1532.34 1238.18 1537.76 Q1238.18 1543.34 1234.71 1546.44 Q1231.24 1549.52 1224.92 1549.52 Q1222.74 1549.52 1220.48 1549.15 Q1218.23 1548.78 1215.82 1548.04 L1215.82 1543.34 Q1217.91 1544.47 1220.13 1545.03 Q1222.35 1545.58 1224.83 1545.58 Q1228.83 1545.58 1231.17 1543.48 Q1233.51 1541.37 1233.51 1537.76 Q1233.51 1534.15 1231.17 1532.04 Q1228.83 1529.94 1224.83 1529.94 Q1222.95 1529.94 1221.08 1530.35 Q1219.23 1530.77 1217.28 1531.65 L1217.28 1514.29 Z" fill="#000000" fill-rule="nonzero" fill-opacity="1" /><path clip-path="url(#clip930)" d="M1247.4 1542.97 L1252.28 1542.97 L1252.28 1548.85 L1247.4 1548.85 L1247.4 1542.97 Z" fill="#000000" fill-rule="nonzero" fill-opacity="1" /><path clip-path="url(#clip930)" d="M1272.47 1517.37 Q1268.86 1517.37 1267.03 1520.93 Q1265.22 1524.47 1265.22 1531.6 Q1265.22 1538.71 1267.03 1542.27 Q1268.86 1545.82 1272.47 1545.82 Q1276.1 1545.82 1277.91 1542.27 Q1279.73 1538.71 1279.73 1531.6 Q1279.73 1524.47 1277.91 1520.93 Q1276.1 1517.37 1272.47 1517.37 M1272.47 1513.66 Q1278.28 1513.66 1281.33 1518.27 Q1284.41 1522.85 1284.41 1531.6 Q1284.41 1540.33 1281.33 1544.94 Q1278.28 1549.52 1272.47 1549.52 Q1266.66 1549.52 1263.58 1544.94 Q1260.52 1540.33 1260.52 1531.6 Q1260.52 1522.85 1263.58 1518.27 Q1266.66 1513.66 1272.47 1513.66 Z" fill="#000000" fill-rule="nonzero" fill-opacity="1" /><path clip-path="url(#clip930)" d="M1736.55 1514.29 L1758.77 1514.29 L1758.77 1516.28 L1746.23 1548.85 L1741.34 1548.85 L1753.15 1518.22 L1736.55 1518.22 L1736.55 1514.29 Z" fill="#000000" fill-rule="nonzero" fill-opacity="1" /><path clip-path="url(#clip930)" d="M1767.89 1542.97 L1772.78 1542.97 L1772.78 1548.85 L1767.89 1548.85 L1767.89 1542.97 Z" fill="#000000" fill-rule="nonzero" fill-opacity="1" /><path clip-path="url(#clip930)" d="M1783.01 1514.29 L1801.36 1514.29 L1801.36 1518.22 L1787.29 1518.22 L1787.29 1526.7 Q1788.31 1526.35 1789.33 1526.19 Q1790.35 1526 1791.36 1526 Q1797.15 1526 1800.53 1529.17 Q1803.91 1532.34 1803.91 1537.76 Q1803.91 1543.34 1800.44 1546.44 Q1796.97 1549.52 1790.65 1549.52 Q1788.47 1549.52 1786.2 1549.15 Q1783.96 1548.78 1781.55 1548.04 L1781.55 1543.34 Q1783.63 1544.47 1785.85 1545.03 Q1788.08 1545.58 1790.55 1545.58 Q1794.56 1545.58 1796.9 1543.48 Q1799.23 1541.37 1799.23 1537.76 Q1799.23 1534.15 1796.9 1532.04 Q1794.56 1529.94 1790.55 1529.94 Q1788.68 1529.94 1786.8 1530.35 Q1784.95 1530.77 1783.01 1531.65 L1783.01 1514.29 Z" fill="#000000" fill-rule="nonzero" fill-opacity="1" /><path clip-path="url(#clip930)" d="M2242.41 1544.91 L2250.05 1544.91 L2250.05 1518.55 L2241.74 1520.21 L2241.74 1515.95 L2250.01 1514.29 L2254.68 1514.29 L2254.68 1544.91 L2262.32 1544.91 L2262.32 1548.85 L2242.41 1548.85 L2242.41 1544.91 Z" fill="#000000" fill-rule="nonzero" fill-opacity="1" /><path clip-path="url(#clip930)" d="M2281.77 1517.37 Q2278.15 1517.37 2276.33 1520.93 Q2274.52 1524.47 2274.52 1531.6 Q2274.52 1538.71 2276.33 1542.27 Q2278.15 1545.82 2281.77 1545.82 Q2285.4 1545.82 2287.21 1542.27 Q2289.03 1538.71 2289.03 1531.6 Q2289.03 1524.47 2287.21 1520.93 Q2285.4 1517.37 2281.77 1517.37 M2281.77 1513.66 Q2287.58 1513.66 2290.63 1518.27 Q2293.71 1522.85 2293.71 1531.6 Q2293.71 1540.33 2290.63 1544.94 Q2287.58 1549.52 2281.77 1549.52 Q2275.96 1549.52 2272.88 1544.94 Q2269.82 1540.33 2269.82 1531.6 Q2269.82 1522.85 2272.88 1518.27 Q2275.96 1513.66 2281.77 1513.66 Z" fill="#000000" fill-rule="nonzero" fill-opacity="1" /><path clip-path="url(#clip930)" d="M2301.93 1542.97 L2306.81 1542.97 L2306.81 1548.85 L2301.93 1548.85 L2301.93 1542.97 Z" fill="#000000" fill-rule="nonzero" fill-opacity="1" /><path clip-path="url(#clip930)" d="M2327 1517.37 Q2323.39 1517.37 2321.56 1520.93 Q2319.75 1524.47 2319.75 1531.6 Q2319.75 1538.71 2321.56 1542.27 Q2323.39 1545.82 2327 1545.82 Q2330.63 1545.82 2332.44 1542.27 Q2334.27 1538.71 2334.27 1531.6 Q2334.27 1524.47 2332.44 1520.93 Q2330.63 1517.37 2327 1517.37 M2327 1513.66 Q2332.81 1513.66 2335.86 1518.27 Q2338.94 1522.85 2338.94 1531.6 Q2338.94 1540.33 2335.86 1544.94 Q2332.81 1549.52 2327 1549.52 Q2321.19 1549.52 2318.11 1544.94 Q2315.05 1540.33 2315.05 1531.6 Q2315.05 1522.85 2318.11 1518.27 Q2321.19 1513.66 2327 1513.66 Z" fill="#000000" fill-rule="nonzero" fill-opacity="1" /><polyline clip-path="url(#clip932)" style="stroke:#000000; stroke-linecap:round; stroke-linejoin:round; stroke-width:2; stroke-opacity:0.1; fill:none" points="147.478,1445.73 2352.76,1445.73 "/>
<polyline clip-path="url(#clip932)" style="stroke:#000000; stroke-linecap:round; stroke-linejoin:round; stroke-width:2; stroke-opacity:0.1; fill:none" points="147.478,1119.53 2352.76,1119.53 "/>
<polyline clip-path="url(#clip932)" style="stroke:#000000; stroke-linecap:round; stroke-linejoin:round; stroke-width:2; stroke-opacity:0.1; fill:none" points="147.478,793.323 2352.76,793.323 "/>
<polyline clip-path="url(#clip932)" style="stroke:#000000; stroke-linecap:round; stroke-linejoin:round; stroke-width:2; stroke-opacity:0.1; fill:none" points="147.478,467.117 2352.76,467.117 "/>
<polyline clip-path="url(#clip932)" style="stroke:#000000; stroke-linecap:round; stroke-linejoin:round; stroke-width:2; stroke-opacity:0.1; fill:none" points="147.478,140.912 2352.76,140.912 "/>
<polyline clip-path="url(#clip930)" style="stroke:#000000; stroke-linecap:round; stroke-linejoin:round; stroke-width:4; stroke-opacity:1; fill:none" points="147.478,1486.45 147.478,47.2441 "/>
<polyline clip-path="url(#clip930)" style="stroke:#000000; stroke-linecap:round; stroke-linejoin:round; stroke-width:4; stroke-opacity:1; fill:none" points="147.478,1445.73 166.376,1445.73 "/>
<polyline clip-path="url(#clip930)" style="stroke:#000000; stroke-linecap:round; stroke-linejoin:round; stroke-width:4; stroke-opacity:1; fill:none" points="147.478,1119.53 166.376,1119.53 "/>
<polyline clip-path="url(#clip930)" style="stroke:#000000; stroke-linecap:round; stroke-linejoin:round; stroke-width:4; stroke-opacity:1; fill:none" points="147.478,793.323 166.376,793.323 "/>
<polyline clip-path="url(#clip930)" style="stroke:#000000; stroke-linecap:round; stroke-linejoin:round; stroke-width:4; stroke-opacity:1; fill:none" points="147.478,467.117 166.376,467.117 "/>
<polyline clip-path="url(#clip930)" style="stroke:#000000; stroke-linecap:round; stroke-linejoin:round; stroke-width:4; stroke-opacity:1; fill:none" points="147.478,140.912 166.376,140.912 "/>
<path clip-path="url(#clip930)" d="M50.9921 1446.18 L80.6679 1446.18 L80.6679 1450.12 L50.9921 1450.12 L50.9921 1446.18 Z" fill="#000000" fill-rule="nonzero" fill-opacity="1" /><path clip-path="url(#clip930)" d="M91.5706 1459.08 L99.2095 1459.08 L99.2095 1432.71 L90.8993 1434.38 L90.8993 1430.12 L99.1632 1428.45 L103.839 1428.45 L103.839 1459.08 L111.478 1459.08 L111.478 1463.01 L91.5706 1463.01 L91.5706 1459.08 Z" fill="#000000" fill-rule="nonzero" fill-opacity="1" /><path clip-path="url(#clip930)" d="M99.5335 1105.33 Q95.9224 1105.33 94.0937 1108.89 Q92.2882 1112.43 92.2882 1119.56 Q92.2882 1126.67 94.0937 1130.23 Q95.9224 1133.78 99.5335 1133.78 Q103.168 1133.78 104.973 1130.23 Q106.802 1126.67 106.802 1119.56 Q106.802 1112.43 104.973 1108.89 Q103.168 1105.33 99.5335 1105.33 M99.5335 1101.62 Q105.344 1101.62 108.399 1106.23 Q111.478 1110.81 111.478 1119.56 Q111.478 1128.29 108.399 1132.9 Q105.344 1137.48 99.5335 1137.48 Q93.7234 1137.48 90.6447 1132.9 Q87.5892 1128.29 87.5892 1119.56 Q87.5892 1110.81 90.6447 1106.23 Q93.7234 1101.62 99.5335 1101.62 Z" fill="#000000" fill-rule="nonzero" fill-opacity="1" /><path clip-path="url(#clip930)" d="M91.5706 806.667 L99.2095 806.667 L99.2095 780.302 L90.8993 781.968 L90.8993 777.709 L99.1632 776.043 L103.839 776.043 L103.839 806.667 L111.478 806.667 L111.478 810.603 L91.5706 810.603 L91.5706 806.667 Z" fill="#000000" fill-rule="nonzero" fill-opacity="1" /><path clip-path="url(#clip930)" d="M95.1586 480.462 L111.478 480.462 L111.478 484.397 L89.5336 484.397 L89.5336 480.462 Q92.1956 477.708 96.7789 473.078 Q101.385 468.425 102.566 467.083 Q104.811 464.559 105.691 462.823 Q106.594 461.064 106.594 459.374 Q106.594 456.62 104.649 454.884 Q102.728 453.147 99.6261 453.147 Q97.4271 453.147 94.9734 453.911 Q92.5428 454.675 89.7651 456.226 L89.7651 451.504 Q92.5891 450.37 95.0428 449.791 Q97.4965 449.212 99.5335 449.212 Q104.904 449.212 108.098 451.897 Q111.293 454.583 111.293 459.073 Q111.293 461.203 110.483 463.124 Q109.696 465.022 107.589 467.615 Q107.01 468.286 103.909 471.504 Q100.807 474.698 95.1586 480.462 Z" fill="#000000" fill-rule="nonzero" fill-opacity="1" /><path clip-path="url(#clip930)" d="M104.348 139.558 Q107.705 140.276 109.58 142.544 Q111.478 144.813 111.478 148.146 Q111.478 153.262 107.959 156.062 Q104.441 158.863 97.9595 158.863 Q95.7836 158.863 93.4688 158.424 Q91.1771 158.007 88.7234 157.15 L88.7234 152.637 Q90.6678 153.771 92.9826 154.35 Q95.2974 154.928 97.8206 154.928 Q102.219 154.928 104.51 153.192 Q106.825 151.456 106.825 148.146 Q106.825 145.09 104.672 143.377 Q102.543 141.641 98.7234 141.641 L94.6956 141.641 L94.6956 137.799 L98.9085 137.799 Q102.358 137.799 104.186 136.433 Q106.015 135.044 106.015 132.451 Q106.015 129.789 104.117 128.377 Q102.242 126.942 98.7234 126.942 Q96.8021 126.942 94.603 127.359 Q92.4039 127.776 89.7651 128.655 L89.7651 124.489 Q92.4271 123.748 94.7419 123.377 Q97.0798 123.007 99.14 123.007 Q104.464 123.007 107.566 125.438 Q110.668 127.845 110.668 131.965 Q110.668 134.836 109.024 136.826 Q107.381 138.794 104.348 139.558 Z" fill="#000000" fill-rule="nonzero" fill-opacity="1" /><polyline clip-path="url(#clip932)" style="stroke:#009af9; stroke-linecap:round; stroke-linejoin:round; stroke-width:4; stroke-opacity:1; fill:none" points="209.891,1119.53 230.906,1086.63 251.921,1054.08 272.935,1022.18 293.95,991.285 314.965,961.693 335.979,933.71 356.994,907.622 378.009,883.694 399.023,862.17 420.038,843.269 441.053,827.185 462.067,814.081 483.082,804.091 504.097,797.317 525.111,793.827 546.126,793.658 567.141,796.811 588.155,803.254 609.17,812.92 630.185,825.713 651.199,841.501 672.214,860.123 693.229,881.389 714.243,905.084 735.258,930.964 756.272,958.767 777.287,988.208 798.302,1018.99 819.316,1050.79 840.331,1083.3 861.346,1116.17 882.36,1149.08 903.375,1181.69 924.39,1213.67 945.404,1244.68 966.419,1274.42 987.434,1302.58 1008.45,1328.87 1029.46,1353.03 1050.48,1374.81 1071.49,1393.99 1092.51,1410.37 1113.52,1423.78 1134.54,1434.09 1155.55,1441.2 1176.57,1445.02 1197.58,1445.53 1218.59,1442.72 1239.61,1436.61 1260.62,1427.26 1281.64,1414.78 1302.65,1399.29 1323.67,1380.95 1344.68,1359.95 1365.7,1336.49 1386.71,1310.82 1407.73,1283.2 1428.74,1253.91 1449.76,1223.25 1470.77,1191.54 1491.79,1159.09 1512.8,1126.23 1533.81,1093.31 1554.83,1060.66 1575.84,1028.6 1596.86,997.478 1617.87,967.595 1638.89,939.261 1659.9,912.765 1680.92,888.376 1701.93,866.345 1722.95,846.894 1743.96,830.222 1764.98,816.5 1785.99,805.867 1807.01,798.431 1828.02,794.269 1849.03,793.423 1870.05,795.901 1891.06,801.678 1912.08,810.696 1933.09,822.862 1954.11,838.052 1975.12,856.112 1996.14,876.857 2017.15,900.076 2038.17,925.532 2059.18,952.965 2080.2,982.097 2101.21,1012.63 2122.23,1044.25 2143.24,1076.64 2164.25,1109.47 2185.27,1142.4 2206.28,1175.1 2227.3,1207.23 2248.31,1238.46 2269.33,1268.49 2290.34,1296.99 "/>
<polyline clip-path="url(#clip932)" style="stroke:#e26f46; stroke-linecap:round; stroke-linejoin:round; stroke-width:4; stroke-opacity:1; fill:none" points="209.891,1119.53 230.906,1119.52 251.921,1119.52 272.935,1119.52 293.95,1119.51 314.965,1119.51 335.979,1119.51 356.994,1119.5 378.009,1119.5 399.023,1119.49 420.038,1119.49 441.053,1119.48 462.067,1119.48 483.082,1119.47 504.097,1119.46 525.111,1119.46 546.126,1119.45 567.141,1119.44 588.155,1119.43 609.17,1119.42 630.185,1119.41 651.199,1119.39 672.214,1119.38 693.229,1119.36 714.243,1119.34 735.258,1119.33 756.272,1119.3 777.287,1119.28 798.302,1119.25 819.316,1119.22 840.331,1119.19 861.346,1119.15 882.36,1119.12 903.375,1119.07 924.39,1119.02 945.404,1118.97 966.419,1118.91 987.434,1118.84 1008.45,1118.77 1029.46,1118.69 1050.48,1118.6 1071.49,1118.5 1092.51,1118.39 1113.52,1118.27 1134.54,1118.14 1155.55,1117.99 1176.57,1117.83 1197.58,1117.65 1218.59,1117.45 1239.61,1117.23 1260.62,1116.98 1281.64,1116.71 1302.65,1116.41 1323.67,1116.08 1344.68,1115.71 1365.7,1115.31 1386.71,1114.86 1407.73,1114.36 1428.74,1113.82 1449.76,1113.21 1470.77,1112.54 1491.79,1111.79 1512.8,1110.97 1533.81,1110.06 1554.83,1109.06 1575.84,1107.94 1596.86,1106.71 1617.87,1105.35 1638.89,1103.84 1659.9,1102.18 1680.92,1100.33 1701.93,1098.29 1722.95,1096.03 1743.96,1093.54 1764.98,1090.77 1785.99,1087.72 1807.01,1084.34 1828.02,1080.6 1849.03,1076.46 1870.05,1071.88 1891.06,1066.82 1912.08,1061.21 1933.09,1055.01 1954.11,1048.16 1975.12,1040.57 1996.14,1032.18 2017.15,1022.9 2038.17,1012.63 2059.18,1001.26 2080.2,988.693 2101.21,974.786 2122.23,959.402 2143.24,942.383 2164.25,923.554 2185.27,902.725 2206.28,879.681 2227.3,854.189 2248.31,825.986 2269.33,794.786 2290.34,760.27 "/>
<polyline clip-path="url(#clip932)" style="stroke:#3da44d; stroke-linecap:round; stroke-linejoin:round; stroke-width:4; stroke-opacity:1; fill:none" points="209.891,793.323 230.906,794.985 251.921,799.956 272.935,808.186 293.95,819.589 314.965,834.049 335.979,851.42 356.994,871.524 378.009,894.157 399.023,919.087 420.038,946.06 441.053,974.802 462.067,1005.02 483.082,1036.4 504.097,1068.63 525.111,1101.39 546.126,1134.32 567.141,1167.11 588.155,1199.41 609.17,1230.89 630.185,1261.24 651.199,1290.15 672.214,1317.31 693.229,1342.46 714.243,1365.34 735.258,1385.71 756.272,1403.37 777.287,1418.13 798.302,1429.85 819.316,1438.41 840.331,1443.71 861.346,1445.72 882.36,1444.39 903.375,1439.75 924.39,1431.85 945.404,1420.77 966.419,1406.61 987.434,1389.53 1008.45,1369.7 1029.46,1347.31 1050.48,1322.6 1071.49,1295.83 1092.51,1267.25 1113.52,1237.17 1134.54,1205.89 1155.55,1173.73 1176.57,1141.02 1197.58,1108.08 1218.59,1075.27 1239.61,1042.91 1260.62,1011.32 1281.64,980.842 1302.65,951.776 1323.67,924.42 1344.68,899.053 1365.7,875.933 1386.71,855.297 1407.73,837.354 1428.74,822.288 1449.76,810.252 1470.77,801.37 1491.79,795.73 1512.8,793.391 1533.81,794.378 1554.83,798.678 1575.84,806.25 1596.86,817.016 1617.87,830.865 1638.89,847.657 1659.9,867.22 1680.92,889.356 1701.93,913.838 1722.95,940.417 1743.96,968.822 1764.98,998.764 1785.99,1029.94 1807.01,1062.02 1828.02,1094.69 1849.03,1127.62 1870.05,1160.46 1891.06,1192.89 1912.08,1224.56 1933.09,1255.17 1954.11,1284.4 1975.12,1311.94 1996.14,1337.52 2017.15,1360.88 2038.17,1381.78 2059.18,1400 2080.2,1415.37 2101.21,1427.72 2122.23,1436.93 2143.24,1442.9 2164.25,1445.58 2185.27,1444.93 2206.28,1440.97 2227.3,1433.72 2248.31,1423.28 2269.33,1409.74 2290.34,1393.24 "/>
<polyline clip-path="url(#clip932)" style="stroke:#c271d2; stroke-linecap:round; stroke-linejoin:round; stroke-width:4; stroke-opacity:1; fill:none" points="209.891,1119.53 230.906,1015.85 251.921,972.909 272.935,939.958 293.95,912.178 314.965,887.704 335.979,865.577 356.994,845.23 378.009,826.291 399.023,808.503 420.038,791.679 441.053,775.677 462.067,760.388 483.082,745.723 504.097,731.612 525.111,717.997 546.126,704.828 567.141,692.065 588.155,679.673 609.17,667.62 630.185,655.88 651.199,644.43 672.214,633.25 693.229,622.321 714.243,611.627 735.258,601.154 756.272,590.888 777.287,580.818 798.302,570.932 819.316,561.222 840.331,551.677 861.346,542.291 882.36,533.054 903.375,523.961 924.39,515.005 945.404,506.179 966.419,497.479 987.434,488.898 1008.45,480.433 1029.46,472.079 1050.48,463.831 1071.49,455.685 1092.51,447.638 1113.52,439.686 1134.54,431.827 1155.55,424.056 1176.57,416.371 1197.58,408.769 1218.59,401.247 1239.61,393.804 1260.62,386.436 1281.64,379.141 1302.65,371.918 1323.67,364.764 1344.68,357.676 1365.7,350.655 1386.71,343.696 1407.73,336.8 1428.74,329.964 1449.76,323.186 1470.77,316.466 1491.79,309.801 1512.8,303.191 1533.81,296.634 1554.83,290.129 1575.84,283.675 1596.86,277.269 1617.87,270.913 1638.89,264.603 1659.9,258.34 1680.92,252.122 1701.93,245.948 1722.95,239.818 1743.96,233.73 1764.98,227.683 1785.99,221.677 1807.01,215.712 1828.02,209.785 1849.03,203.896 1870.05,198.046 1891.06,192.232 1912.08,186.454 1933.09,180.712 1954.11,175.005 1975.12,169.332 1996.14,163.693 2017.15,158.087 2038.17,152.513 2059.18,146.972 2080.2,141.461 2101.21,135.982 2122.23,130.533 2143.24,125.114 2164.25,119.724 2185.27,114.363 2206.28,109.031 2227.3,103.726 2248.31,98.4492 2269.33,93.1994 2290.34,87.9763 "/>
<polyline clip-path="url(#clip932)" style="stroke:#ac8d18; stroke-linecap:round; stroke-linejoin:round; stroke-width:4; stroke-opacity:1; fill:none" points="209.891,1119.53 230.906,1119.49 251.921,1119.39 272.935,1119.23 293.95,1119 314.965,1118.7 335.979,1118.33 356.994,1117.9 378.009,1117.4 399.023,1116.83 420.038,1116.2 441.053,1115.5 462.067,1114.73 483.082,1113.9 504.097,1113 525.111,1112.04 546.126,1111.01 567.141,1109.91 588.155,1108.74 609.17,1107.51 630.185,1106.21 651.199,1104.85 672.214,1103.42 693.229,1101.92 714.243,1100.36 735.258,1098.73 756.272,1097.03 777.287,1095.26 798.302,1093.43 819.316,1091.54 840.331,1089.57 861.346,1087.54 882.36,1085.45 903.375,1083.28 924.39,1081.05 945.404,1078.76 966.419,1076.39 987.434,1073.96 1008.45,1071.47 1029.46,1068.9 1050.48,1066.28 1071.49,1063.58 1092.51,1060.82 1113.52,1057.99 1134.54,1055.09 1155.55,1052.13 1176.57,1049.1 1197.58,1046.01 1218.59,1042.84 1239.61,1039.62 1260.62,1036.32 1281.64,1032.96 1302.65,1029.53 1323.67,1026.04 1344.68,1022.47 1365.7,1018.85 1386.71,1015.15 1407.73,1011.39 1428.74,1007.56 1449.76,1003.67 1470.77,999.709 1491.79,995.682 1512.8,991.588 1533.81,987.428 1554.83,983.201 1575.84,978.908 1596.86,974.548 1617.87,970.121 1638.89,965.628 1659.9,961.068 1680.92,956.442 1701.93,951.749 1722.95,946.989 1743.96,942.163 1764.98,937.271 1785.99,932.312 1807.01,927.286 1828.02,922.194 1849.03,917.035 1870.05,911.809 1891.06,906.517 1912.08,901.159 1933.09,895.734 1954.11,890.242 1975.12,884.684 1996.14,879.059 2017.15,873.368 2038.17,867.61 2059.18,861.785 2080.2,855.894 2101.21,849.937 2122.23,843.912 2143.24,837.822 2164.25,831.664 2185.27,825.44 2206.28,819.15 2227.3,812.793 2248.31,806.369 2269.33,799.879 2290.34,793.323 "/>
<polyline clip-path="url(#clip932)" style="stroke:#00a9ad; stroke-linecap:round; stroke-linejoin:round; stroke-width:4; stroke-opacity:1; fill:none" points="209.891,1282.63 230.906,1279.31 251.921,1269.5 272.935,1253.58 293.95,1232.21 314.965,1206.26 335.979,1176.78 356.994,1144.97 378.009,1112.13 399.023,1079.59 420.038,1048.67 441.053,1020.64 462.067,996.622 483.082,977.607 504.097,964.365 525.111,957.434 546.126,957.096 567.141,963.365 588.155,975.985 609.17,994.443 630.185,1017.99 651.199,1045.67 672.214,1076.35 693.229,1108.78 714.243,1141.66 735.258,1173.63 756.272,1203.4 777.287,1229.77 798.302,1251.64 819.316,1268.15 840.331,1278.61 861.346,1282.6 882.36,1279.95 903.375,1270.78 924.39,1255.46 945.404,1234.61 966.419,1209.08 987.434,1179.91 1008.45,1148.28 1029.46,1115.48 1050.48,1082.85 1071.49,1051.71 1092.51,1023.32 1113.52,998.852 1134.54,979.29 1155.55,965.431 1176.57,957.841 1197.58,956.827 1218.59,962.43 1239.61,974.423 1260.62,992.318 1281.64,1015.39 1302.65,1042.69 1323.67,1073.12 1344.68,1105.44 1365.7,1138.33 1386.71,1170.46 1407.73,1200.51 1428.74,1227.27 1449.76,1249.65 1470.77,1266.73 1491.79,1277.83 1512.8,1282.49 1533.81,1280.52 1554.83,1272.01 1575.84,1257.29 1596.86,1236.97 1617.87,1211.87 1638.89,1183.01 1659.9,1151.58 1680.92,1118.83 1701.93,1086.12 1722.95,1054.77 1743.96,1026.05 1764.98,1001.13 1785.99,981.031 1807.01,966.563 1828.02,958.316 1849.03,956.626 1870.05,961.562 1891.06,972.923 1912.08,990.246 1933.09,1012.83 1954.11,1039.75 1975.12,1069.92 1996.14,1102.1 2017.15,1135 2038.17,1167.26 2059.18,1197.58 2080.2,1224.73 2101.21,1247.6 2122.23,1265.26 2143.24,1276.99 2164.25,1282.32 2185.27,1281.03 2206.28,1273.16 2227.3,1259.05 2248.31,1239.27 2269.33,1214.61 2290.34,1186.09 "/>
<path clip-path="url(#clip930)" d="M220.987 458.098 L495.658 458.098 L495.658 95.2176 L220.987 95.2176  Z" fill="#ffffff" fill-rule="evenodd" fill-opacity="1"/>
<polyline clip-path="url(#clip930)" style="stroke:#000000; stroke-linecap:round; stroke-linejoin:round; stroke-width:4; stroke-opacity:1; fill:none" points="220.987,458.098 495.658,458.098 495.658,95.2176 220.987,95.2176 220.987,458.098 "/>
<polyline clip-path="url(#clip930)" style="stroke:#009af9; stroke-linecap:round; stroke-linejoin:round; stroke-width:4; stroke-opacity:1; fill:none" points="245.49,147.058 392.509,147.058 "/>
<path clip-path="url(#clip930)" d="M430.854 166.745 Q429.049 171.375 427.336 172.787 Q425.623 174.199 422.753 174.199 L419.35 174.199 L419.35 170.634 L421.85 170.634 Q423.609 170.634 424.581 169.8 Q425.554 168.967 426.734 165.865 L427.498 163.921 L417.012 138.412 L421.526 138.412 L429.628 158.689 L437.729 138.412 L442.243 138.412 L430.854 166.745 Z" fill="#000000" fill-rule="nonzero" fill-opacity="1" /><path clip-path="url(#clip930)" d="M449.535 160.402 L457.174 160.402 L457.174 134.037 L448.864 135.703 L448.864 131.444 L457.127 129.778 L461.803 129.778 L461.803 160.402 L469.442 160.402 L469.442 164.338 L449.535 164.338 L449.535 160.402 Z" fill="#000000" fill-rule="nonzero" fill-opacity="1" /><polyline clip-path="url(#clip930)" style="stroke:#e26f46; stroke-linecap:round; stroke-linejoin:round; stroke-width:4; stroke-opacity:1; fill:none" points="245.49,198.898 392.509,198.898 "/>
<path clip-path="url(#clip930)" d="M430.854 218.585 Q429.049 223.215 427.336 224.627 Q425.623 226.039 422.753 226.039 L419.35 226.039 L419.35 222.474 L421.85 222.474 Q423.609 222.474 424.581 221.64 Q425.554 220.807 426.734 217.705 L427.498 215.761 L417.012 190.252 L421.526 190.252 L429.628 210.529 L437.729 190.252 L442.243 190.252 L430.854 218.585 Z" fill="#000000" fill-rule="nonzero" fill-opacity="1" /><path clip-path="url(#clip930)" d="M452.752 212.242 L469.072 212.242 L469.072 216.178 L447.127 216.178 L447.127 212.242 Q449.789 209.488 454.373 204.858 Q458.979 200.205 460.16 198.863 Q462.405 196.34 463.285 194.604 Q464.188 192.844 464.188 191.155 Q464.188 188.4 462.243 186.664 Q460.322 184.928 457.22 184.928 Q455.021 184.928 452.567 185.692 Q450.137 186.455 447.359 188.006 L447.359 183.284 Q450.183 182.15 452.637 181.571 Q455.09 180.993 457.127 180.993 Q462.498 180.993 465.692 183.678 Q468.887 186.363 468.887 190.854 Q468.887 192.983 468.076 194.905 Q467.289 196.803 465.183 199.395 Q464.604 200.067 461.502 203.284 Q458.401 206.479 452.752 212.242 Z" fill="#000000" fill-rule="nonzero" fill-opacity="1" /><polyline clip-path="url(#clip930)" style="stroke:#3da44d; stroke-linecap:round; stroke-linejoin:round; stroke-width:4; stroke-opacity:1; fill:none" points="245.49,250.738 392.509,250.738 "/>
<path clip-path="url(#clip930)" d="M430.854 270.425 Q429.049 275.055 427.336 276.467 Q425.623 277.879 422.753 277.879 L419.35 277.879 L419.35 274.314 L421.85 274.314 Q423.609 274.314 424.581 273.48 Q425.554 272.647 426.734 269.545 L427.498 267.601 L417.012 242.092 L421.526 242.092 L429.628 262.369 L437.729 242.092 L442.243 242.092 L430.854 270.425 Z" fill="#000000" fill-rule="nonzero" fill-opacity="1" /><path clip-path="url(#clip930)" d="M462.891 249.383 Q466.248 250.101 468.123 252.369 Q470.021 254.638 470.021 257.971 Q470.021 263.087 466.502 265.888 Q462.984 268.689 456.502 268.689 Q454.327 268.689 452.012 268.249 Q449.72 267.832 447.266 266.976 L447.266 262.462 Q449.211 263.596 451.526 264.175 Q453.84 264.754 456.364 264.754 Q460.762 264.754 463.053 263.018 Q465.368 261.281 465.368 257.971 Q465.368 254.916 463.215 253.203 Q461.086 251.467 457.266 251.467 L453.239 251.467 L453.239 247.624 L457.451 247.624 Q460.901 247.624 462.729 246.258 Q464.558 244.87 464.558 242.277 Q464.558 239.615 462.66 238.203 Q460.785 236.768 457.266 236.768 Q455.345 236.768 453.146 237.184 Q450.947 237.601 448.308 238.481 L448.308 234.314 Q450.97 233.573 453.285 233.203 Q455.623 232.833 457.683 232.833 Q463.007 232.833 466.109 235.263 Q469.211 237.67 469.211 241.791 Q469.211 244.661 467.567 246.652 Q465.924 248.62 462.891 249.383 Z" fill="#000000" fill-rule="nonzero" fill-opacity="1" /><polyline clip-path="url(#clip930)" style="stroke:#c271d2; stroke-linecap:round; stroke-linejoin:round; stroke-width:4; stroke-opacity:1; fill:none" points="245.49,302.578 392.509,302.578 "/>
<path clip-path="url(#clip930)" d="M430.854 322.265 Q429.049 326.895 427.336 328.307 Q425.623 329.719 422.753 329.719 L419.35 329.719 L419.35 326.154 L421.85 326.154 Q423.609 326.154 424.581 325.32 Q425.554 324.487 426.734 321.385 L427.498 319.441 L417.012 293.932 L421.526 293.932 L429.628 314.209 L437.729 293.932 L442.243 293.932 L430.854 322.265 Z" fill="#000000" fill-rule="nonzero" fill-opacity="1" /><path clip-path="url(#clip930)" d="M461.572 289.372 L449.766 307.821 L461.572 307.821 L461.572 289.372 M460.345 285.298 L466.225 285.298 L466.225 307.821 L471.155 307.821 L471.155 311.709 L466.225 311.709 L466.225 319.858 L461.572 319.858 L461.572 311.709 L445.97 311.709 L445.97 307.196 L460.345 285.298 Z" fill="#000000" fill-rule="nonzero" fill-opacity="1" /><polyline clip-path="url(#clip930)" style="stroke:#ac8d18; stroke-linecap:round; stroke-linejoin:round; stroke-width:4; stroke-opacity:1; fill:none" points="245.49,354.418 392.509,354.418 "/>
<path clip-path="url(#clip930)" d="M430.854 374.105 Q429.049 378.735 427.336 380.147 Q425.623 381.559 422.753 381.559 L419.35 381.559 L419.35 377.994 L421.85 377.994 Q423.609 377.994 424.581 377.16 Q425.554 376.327 426.734 373.225 L427.498 371.281 L417.012 345.772 L421.526 345.772 L429.628 366.049 L437.729 345.772 L442.243 345.772 L430.854 374.105 Z" fill="#000000" fill-rule="nonzero" fill-opacity="1" /><path clip-path="url(#clip930)" d="M448.771 337.138 L467.127 337.138 L467.127 341.073 L453.053 341.073 L453.053 349.545 Q454.072 349.198 455.09 349.036 Q456.109 348.85 457.127 348.85 Q462.914 348.85 466.294 352.022 Q469.674 355.193 469.674 360.61 Q469.674 366.188 466.201 369.29 Q462.729 372.369 456.41 372.369 Q454.234 372.369 451.965 371.998 Q449.72 371.628 447.313 370.887 L447.313 366.188 Q449.396 367.323 451.618 367.878 Q453.84 368.434 456.317 368.434 Q460.322 368.434 462.66 366.327 Q464.998 364.221 464.998 360.61 Q464.998 356.999 462.66 354.892 Q460.322 352.786 456.317 352.786 Q454.442 352.786 452.567 353.202 Q450.715 353.619 448.771 354.499 L448.771 337.138 Z" fill="#000000" fill-rule="nonzero" fill-opacity="1" /><polyline clip-path="url(#clip930)" style="stroke:#00a9ad; stroke-linecap:round; stroke-linejoin:round; stroke-width:4; stroke-opacity:1; fill:none" points="245.49,406.258 392.509,406.258 "/>
<path clip-path="url(#clip930)" d="M430.854 425.945 Q429.049 430.575 427.336 431.987 Q425.623 433.399 422.753 433.399 L419.35 433.399 L419.35 429.834 L421.85 429.834 Q423.609 429.834 424.581 429 Q425.554 428.167 426.734 425.065 L427.498 423.121 L417.012 397.612 L421.526 397.612 L429.628 417.889 L437.729 397.612 L442.243 397.612 L430.854 425.945 Z" fill="#000000" fill-rule="nonzero" fill-opacity="1" /><path clip-path="url(#clip930)" d="M459.303 404.394 Q456.155 404.394 454.303 406.547 Q452.475 408.7 452.475 412.45 Q452.475 416.176 454.303 418.352 Q456.155 420.505 459.303 420.505 Q462.451 420.505 464.28 418.352 Q466.132 416.176 466.132 412.45 Q466.132 408.7 464.28 406.547 Q462.451 404.394 459.303 404.394 M468.586 389.741 L468.586 394.001 Q466.826 393.167 465.021 392.728 Q463.238 392.288 461.479 392.288 Q456.85 392.288 454.396 395.413 Q451.965 398.538 451.618 404.857 Q452.984 402.843 455.044 401.778 Q457.104 400.69 459.581 400.69 Q464.789 400.69 467.799 403.862 Q470.831 407.01 470.831 412.45 Q470.831 417.774 467.683 420.991 Q464.535 424.209 459.303 424.209 Q453.308 424.209 450.137 419.626 Q446.965 415.019 446.965 406.292 Q446.965 398.098 450.854 393.237 Q454.743 388.353 461.294 388.353 Q463.053 388.353 464.836 388.7 Q466.641 389.047 468.586 389.741 Z" fill="#000000" fill-rule="nonzero" fill-opacity="1" /></svg>
