<?xml version="1.0" encoding="utf-8"?>
<svg xmlns="http://www.w3.org/2000/svg" xmlns:xlink="http://www.w3.org/1999/xlink" width="600" height="400" viewBox="0 0 2400 1600">
<defs>
  <clipPath id="clip060">
    <rect x="0" y="0" width="2400" height="1600"/>
  </clipPath>
</defs>
<path clip-path="url(#clip060)" d="M0 1600 L2400 1600 L2400 0 L0 0  Z" fill="#ffffff" fill-rule="evenodd" fill-opacity="1"/>
<defs>
  <clipPath id="clip061">
    <rect x="480" y="0" width="1681" height="1600"/>
  </clipPath>
</defs>
<path clip-path="url(#clip060)" d="M257.204 1423.18 L2352.76 1423.18 L2352.76 123.472 L257.204 123.472  Z" fill="#ffffff" fill-rule="evenodd" fill-opacity="1"/>
<defs>
  <clipPath id="clip062">
    <rect x="257" y="123" width="2097" height="1301"/>
  </clipPath>
</defs>
<polyline clip-path="url(#clip062)" style="stroke:#000000; stroke-linecap:round; stroke-linejoin:round; stroke-width:2; stroke-opacity:0.1; fill:none" points="316.512,1423.18 316.512,123.472 "/>
<polyline clip-path="url(#clip062)" style="stroke:#000000; stroke-linecap:round; stroke-linejoin:round; stroke-width:2; stroke-opacity:0.1; fill:none" points="810.746,1423.18 810.746,123.472 "/>
<polyline clip-path="url(#clip062)" style="stroke:#000000; stroke-linecap:round; stroke-linejoin:round; stroke-width:2; stroke-opacity:0.1; fill:none" points="1304.98,1423.18 1304.98,123.472 "/>
<polyline clip-path="url(#clip062)" style="stroke:#000000; stroke-linecap:round; stroke-linejoin:round; stroke-width:2; stroke-opacity:0.1; fill:none" points="1799.21,1423.18 1799.21,123.472 "/>
<polyline clip-path="url(#clip062)" style="stroke:#000000; stroke-linecap:round; stroke-linejoin:round; stroke-width:2; stroke-opacity:0.1; fill:none" points="2293.45,1423.18 2293.45,123.472 "/>
<polyline clip-path="url(#clip060)" style="stroke:#000000; stroke-linecap:round; stroke-linejoin:round; stroke-width:4; stroke-opacity:1; fill:none" points="257.204,1423.18 2352.76,1423.18 "/>
<polyline clip-path="url(#clip060)" style="stroke:#000000; stroke-linecap:round; stroke-linejoin:round; stroke-width:4; stroke-opacity:1; fill:none" points="316.512,1423.18 316.512,1404.28 "/>
<polyline clip-path="url(#clip060)" style="stroke:#000000; stroke-linecap:round; stroke-linejoin:round; stroke-width:4; stroke-opacity:1; fill:none" points="810.746,1423.18 810.746,1404.28 "/>
<polyline clip-path="url(#clip060)" style="stroke:#000000; stroke-linecap:round; stroke-linejoin:round; stroke-width:4; stroke-opacity:1; fill:none" points="1304.98,1423.18 1304.98,1404.28 "/>
<polyline clip-path="url(#clip060)" style="stroke:#000000; stroke-linecap:round; stroke-linejoin:round; stroke-width:4; stroke-opacity:1; fill:none" points="1799.21,1423.18 1799.21,1404.28 "/>
<polyline clip-path="url(#clip060)" style="stroke:#000000; stroke-linecap:round; stroke-linejoin:round; stroke-width:4; stroke-opacity:1; fill:none" points="2293.45,1423.18 2293.45,1404.28 "/>
<path clip-path="url(#clip060)" d="M293.896 1454.1 Q290.285 1454.1 288.457 1457.66 Q286.651 1461.2 286.651 1468.33 Q286.651 1475.44 288.457 1479.01 Q290.285 1482.55 293.896 1482.55 Q297.531 1482.55 299.336 1479.01 Q301.165 1475.44 301.165 1468.33 Q301.165 1461.2 299.336 1457.66 Q297.531 1454.1 293.896 1454.1 M293.896 1450.39 Q299.707 1450.39 302.762 1455 Q305.841 1459.58 305.841 1468.33 Q305.841 1477.06 302.762 1481.67 Q299.707 1486.25 293.896 1486.25 Q288.086 1486.25 285.008 1481.67 Q281.952 1477.06 281.952 1468.33 Q281.952 1459.58 285.008 1455 Q288.086 1450.39 293.896 1450.39 Z" fill="#000000" fill-rule="nonzero" fill-opacity="1" /><path clip-path="url(#clip060)" d="M314.058 1479.7 L318.943 1479.7 L318.943 1485.58 L314.058 1485.58 L314.058 1479.7 Z" fill="#000000" fill-rule="nonzero" fill-opacity="1" /><path clip-path="url(#clip060)" d="M339.128 1454.1 Q335.517 1454.1 333.688 1457.66 Q331.882 1461.2 331.882 1468.33 Q331.882 1475.44 333.688 1479.01 Q335.517 1482.55 339.128 1482.55 Q342.762 1482.55 344.568 1479.01 Q346.396 1475.44 346.396 1468.33 Q346.396 1461.2 344.568 1457.66 Q342.762 1454.1 339.128 1454.1 M339.128 1450.39 Q344.938 1450.39 347.993 1455 Q351.072 1459.58 351.072 1468.33 Q351.072 1477.06 347.993 1481.67 Q344.938 1486.25 339.128 1486.25 Q333.318 1486.25 330.239 1481.67 Q327.183 1477.06 327.183 1468.33 Q327.183 1459.58 330.239 1455 Q333.318 1450.39 339.128 1450.39 Z" fill="#000000" fill-rule="nonzero" fill-opacity="1" /><path clip-path="url(#clip060)" d="M782.482 1481.64 L798.802 1481.64 L798.802 1485.58 L776.857 1485.58 L776.857 1481.64 Q779.519 1478.89 784.103 1474.26 Q788.709 1469.61 789.89 1468.27 Q792.135 1465.74 793.015 1464.01 Q793.917 1462.25 793.917 1460.56 Q793.917 1457.8 791.973 1456.07 Q790.052 1454.33 786.95 1454.33 Q784.751 1454.33 782.297 1455.09 Q779.867 1455.86 777.089 1457.41 L777.089 1452.69 Q779.913 1451.55 782.367 1450.97 Q784.82 1450.39 786.857 1450.39 Q792.228 1450.39 795.422 1453.08 Q798.616 1455.77 798.616 1460.26 Q798.616 1462.39 797.806 1464.31 Q797.019 1466.2 794.913 1468.8 Q794.334 1469.47 791.232 1472.69 Q788.13 1475.88 782.482 1481.64 Z" fill="#000000" fill-rule="nonzero" fill-opacity="1" /><path clip-path="url(#clip060)" d="M808.616 1479.7 L813.501 1479.7 L813.501 1485.58 L808.616 1485.58 L808.616 1479.7 Z" fill="#000000" fill-rule="nonzero" fill-opacity="1" /><path clip-path="url(#clip060)" d="M823.732 1451.02 L842.088 1451.02 L842.088 1454.96 L828.014 1454.96 L828.014 1463.43 Q829.033 1463.08 830.051 1462.92 Q831.07 1462.73 832.089 1462.73 Q837.876 1462.73 841.255 1465.9 Q844.635 1469.08 844.635 1474.49 Q844.635 1480.07 841.163 1483.17 Q837.69 1486.25 831.371 1486.25 Q829.195 1486.25 826.927 1485.88 Q824.681 1485.51 822.274 1484.77 L822.274 1480.07 Q824.357 1481.2 826.579 1481.76 Q828.801 1482.32 831.278 1482.32 Q835.283 1482.32 837.621 1480.21 Q839.959 1478.1 839.959 1474.49 Q839.959 1470.88 837.621 1468.77 Q835.283 1466.67 831.278 1466.67 Q829.403 1466.67 827.528 1467.08 Q825.677 1467.5 823.732 1468.38 L823.732 1451.02 Z" fill="#000000" fill-rule="nonzero" fill-opacity="1" /><path clip-path="url(#clip060)" d="M1272.14 1451.02 L1290.5 1451.02 L1290.5 1454.96 L1276.43 1454.96 L1276.43 1463.43 Q1277.45 1463.08 1278.46 1462.92 Q1279.48 1462.73 1280.5 1462.73 Q1286.29 1462.73 1289.67 1465.9 Q1293.05 1469.08 1293.05 1474.49 Q1293.05 1480.07 1289.57 1483.17 Q1286.1 1486.25 1279.78 1486.25 Q1277.61 1486.25 1275.34 1485.88 Q1273.09 1485.51 1270.69 1484.77 L1270.69 1480.07 Q1272.77 1481.2 1274.99 1481.76 Q1277.21 1482.32 1279.69 1482.32 Q1283.7 1482.32 1286.03 1480.21 Q1288.37 1478.1 1288.37 1474.49 Q1288.37 1470.88 1286.03 1468.77 Q1283.7 1466.67 1279.69 1466.67 Q1277.82 1466.67 1275.94 1467.08 Q1274.09 1467.5 1272.14 1468.38 L1272.14 1451.02 Z" fill="#000000" fill-rule="nonzero" fill-opacity="1" /><path clip-path="url(#clip060)" d="M1302.26 1479.7 L1307.14 1479.7 L1307.14 1485.58 L1302.26 1485.58 L1302.26 1479.7 Z" fill="#000000" fill-rule="nonzero" fill-opacity="1" /><path clip-path="url(#clip060)" d="M1327.33 1454.1 Q1323.72 1454.1 1321.89 1457.66 Q1320.08 1461.2 1320.08 1468.33 Q1320.08 1475.44 1321.89 1479.01 Q1323.72 1482.55 1327.33 1482.55 Q1330.96 1482.55 1332.77 1479.01 Q1334.6 1475.44 1334.6 1468.33 Q1334.6 1461.2 1332.77 1457.66 Q1330.96 1454.1 1327.33 1454.1 M1327.33 1450.39 Q1333.14 1450.39 1336.2 1455 Q1339.27 1459.58 1339.27 1468.33 Q1339.27 1477.06 1336.2 1481.67 Q1333.14 1486.25 1327.33 1486.25 Q1321.52 1486.25 1318.44 1481.67 Q1315.39 1477.06 1315.39 1468.33 Q1315.39 1459.58 1318.44 1455 Q1321.52 1450.39 1327.33 1450.39 Z" fill="#000000" fill-rule="nonzero" fill-opacity="1" /><path clip-path="url(#clip060)" d="M1765.53 1451.02 L1787.76 1451.02 L1787.76 1453.01 L1775.21 1485.58 L1770.33 1485.58 L1782.13 1454.96 L1765.53 1454.96 L1765.53 1451.02 Z" fill="#000000" fill-rule="nonzero" fill-opacity="1" /><path clip-path="url(#clip060)" d="M1796.88 1479.7 L1801.76 1479.7 L1801.76 1485.58 L1796.88 1485.58 L1796.88 1479.7 Z" fill="#000000" fill-rule="nonzero" fill-opacity="1" /><path clip-path="url(#clip060)" d="M1811.99 1451.02 L1830.35 1451.02 L1830.35 1454.96 L1816.27 1454.96 L1816.27 1463.43 Q1817.29 1463.08 1818.31 1462.92 Q1819.33 1462.73 1820.35 1462.73 Q1826.14 1462.73 1829.51 1465.9 Q1832.89 1469.08 1832.89 1474.49 Q1832.89 1480.07 1829.42 1483.17 Q1825.95 1486.25 1819.63 1486.25 Q1817.45 1486.25 1815.19 1485.88 Q1812.94 1485.51 1810.53 1484.77 L1810.53 1480.07 Q1812.62 1481.2 1814.84 1481.76 Q1817.06 1482.32 1819.54 1482.32 Q1823.54 1482.32 1825.88 1480.21 Q1828.22 1478.1 1828.22 1474.49 Q1828.22 1470.88 1825.88 1468.77 Q1823.54 1466.67 1819.54 1466.67 Q1817.66 1466.67 1815.79 1467.08 Q1813.94 1467.5 1811.99 1468.38 L1811.99 1451.02 Z" fill="#000000" fill-rule="nonzero" fill-opacity="1" /><path clip-path="url(#clip060)" d="M2245.52 1481.64 L2253.16 1481.64 L2253.16 1455.28 L2244.85 1456.95 L2244.85 1452.69 L2253.11 1451.02 L2257.79 1451.02 L2257.79 1481.64 L2265.43 1481.64 L2265.43 1485.58 L2245.52 1485.58 L2245.52 1481.64 Z" fill="#000000" fill-rule="nonzero" fill-opacity="1" /><path clip-path="url(#clip060)" d="M2284.87 1454.1 Q2281.26 1454.1 2279.43 1457.66 Q2277.63 1461.2 2277.63 1468.33 Q2277.63 1475.44 2279.43 1479.01 Q2281.26 1482.55 2284.87 1482.55 Q2288.51 1482.55 2290.31 1479.01 Q2292.14 1475.44 2292.14 1468.33 Q2292.14 1461.2 2290.31 1457.66 Q2288.51 1454.1 2284.87 1454.1 M2284.87 1450.39 Q2290.68 1450.39 2293.74 1455 Q2296.82 1459.58 2296.82 1468.33 Q2296.82 1477.06 2293.74 1481.67 Q2290.68 1486.25 2284.87 1486.25 Q2279.06 1486.25 2275.98 1481.67 Q2272.93 1477.06 2272.93 1468.33 Q2272.93 1459.58 2275.98 1455 Q2279.06 1450.39 2284.87 1450.39 Z" fill="#000000" fill-rule="nonzero" fill-opacity="1" /><path clip-path="url(#clip060)" d="M2305.03 1479.7 L2309.92 1479.7 L2309.92 1485.58 L2305.03 1485.58 L2305.03 1479.7 Z" fill="#000000" fill-rule="nonzero" fill-opacity="1" /><path clip-path="url(#clip060)" d="M2330.1 1454.1 Q2326.49 1454.1 2324.66 1457.66 Q2322.86 1461.2 2322.86 1468.33 Q2322.86 1475.44 2324.66 1479.01 Q2326.49 1482.55 2330.1 1482.55 Q2333.74 1482.55 2335.54 1479.01 Q2337.37 1475.44 2337.37 1468.33 Q2337.37 1461.2 2335.54 1457.66 Q2333.74 1454.1 2330.1 1454.1 M2330.1 1450.39 Q2335.91 1450.39 2338.97 1455 Q2342.05 1459.58 2342.05 1468.33 Q2342.05 1477.06 2338.97 1481.67 Q2335.91 1486.25 2330.1 1486.25 Q2324.29 1486.25 2321.21 1481.67 Q2318.16 1477.06 2318.16 1468.33 Q2318.16 1459.58 2321.21 1455 Q2324.29 1450.39 2330.1 1450.39 Z" fill="#000000" fill-rule="nonzero" fill-opacity="1" /><path clip-path="url(#clip060)" d="M1321.59 1532.4 L1308.7 1549.74 L1322.26 1568.04 L1315.36 1568.04 L1304.98 1554.04 L1294.6 1568.04 L1287.7 1568.04 L1301.54 1549.39 L1288.87 1532.4 L1295.78 1532.4 L1305.23 1545.1 L1314.69 1532.4 L1321.59 1532.4 Z" fill="#000000" fill-rule="nonzero" fill-opacity="1" /><polyline clip-path="url(#clip062)" style="stroke:#000000; stroke-linecap:round; stroke-linejoin:round; stroke-width:2; stroke-opacity:0.1; fill:none" points="257.204,1386.43 2352.76,1386.43 "/>
<polyline clip-path="url(#clip062)" style="stroke:#000000; stroke-linecap:round; stroke-linejoin:round; stroke-width:2; stroke-opacity:0.1; fill:none" points="257.204,1079.89 2352.76,1079.89 "/>
<polyline clip-path="url(#clip062)" style="stroke:#000000; stroke-linecap:round; stroke-linejoin:round; stroke-width:2; stroke-opacity:0.1; fill:none" points="257.204,773.342 2352.76,773.342 "/>
<polyline clip-path="url(#clip062)" style="stroke:#000000; stroke-linecap:round; stroke-linejoin:round; stroke-width:2; stroke-opacity:0.1; fill:none" points="257.204,466.799 2352.76,466.799 "/>
<polyline clip-path="url(#clip062)" style="stroke:#000000; stroke-linecap:round; stroke-linejoin:round; stroke-width:2; stroke-opacity:0.1; fill:none" points="257.204,160.256 2352.76,160.256 "/>
<polyline clip-path="url(#clip060)" style="stroke:#000000; stroke-linecap:round; stroke-linejoin:round; stroke-width:4; stroke-opacity:1; fill:none" points="257.204,1423.18 257.204,123.472 "/>
<polyline clip-path="url(#clip060)" style="stroke:#000000; stroke-linecap:round; stroke-linejoin:round; stroke-width:4; stroke-opacity:1; fill:none" points="257.204,1386.43 276.102,1386.43 "/>
<polyline clip-path="url(#clip060)" style="stroke:#000000; stroke-linecap:round; stroke-linejoin:round; stroke-width:4; stroke-opacity:1; fill:none" points="257.204,1079.89 276.102,1079.89 "/>
<polyline clip-path="url(#clip060)" style="stroke:#000000; stroke-linecap:round; stroke-linejoin:round; stroke-width:4; stroke-opacity:1; fill:none" points="257.204,773.342 276.102,773.342 "/>
<polyline clip-path="url(#clip060)" style="stroke:#000000; stroke-linecap:round; stroke-linejoin:round; stroke-width:4; stroke-opacity:1; fill:none" points="257.204,466.799 276.102,466.799 "/>
<polyline clip-path="url(#clip060)" style="stroke:#000000; stroke-linecap:round; stroke-linejoin:round; stroke-width:4; stroke-opacity:1; fill:none" points="257.204,160.256 276.102,160.256 "/>
<path clip-path="url(#clip060)" d="M114.26 1386.88 L143.936 1386.88 L143.936 1390.81 L114.26 1390.81 L114.26 1386.88 Z" fill="#000000" fill-rule="nonzero" fill-opacity="1" /><path clip-path="url(#clip060)" d="M154.839 1399.77 L162.477 1399.77 L162.477 1373.41 L154.167 1375.07 L154.167 1370.81 L162.431 1369.15 L167.107 1369.15 L167.107 1399.77 L174.746 1399.77 L174.746 1403.71 L154.839 1403.71 L154.839 1399.77 Z" fill="#000000" fill-rule="nonzero" fill-opacity="1" /><path clip-path="url(#clip060)" d="M184.19 1397.83 L189.075 1397.83 L189.075 1403.71 L184.19 1403.71 L184.19 1397.83 Z" fill="#000000" fill-rule="nonzero" fill-opacity="1" /><path clip-path="url(#clip060)" d="M209.26 1372.23 Q205.649 1372.23 203.82 1375.79 Q202.014 1379.33 202.014 1386.46 Q202.014 1393.57 203.82 1397.13 Q205.649 1400.68 209.26 1400.68 Q212.894 1400.68 214.699 1397.13 Q216.528 1393.57 216.528 1386.46 Q216.528 1379.33 214.699 1375.79 Q212.894 1372.23 209.26 1372.23 M209.26 1368.52 Q215.07 1368.52 218.125 1373.13 Q221.204 1377.71 221.204 1386.46 Q221.204 1395.19 218.125 1399.8 Q215.07 1404.38 209.26 1404.38 Q203.449 1404.38 200.371 1399.8 Q197.315 1395.19 197.315 1386.46 Q197.315 1377.71 200.371 1373.13 Q203.449 1368.52 209.26 1368.52 Z" fill="#000000" fill-rule="nonzero" fill-opacity="1" /><path clip-path="url(#clip060)" d="M115.256 1080.34 L144.931 1080.34 L144.931 1084.27 L115.256 1084.27 L115.256 1080.34 Z" fill="#000000" fill-rule="nonzero" fill-opacity="1" /><path clip-path="url(#clip060)" d="M165.024 1065.68 Q161.413 1065.68 159.584 1069.25 Q157.778 1072.79 157.778 1079.92 Q157.778 1087.03 159.584 1090.59 Q161.413 1094.13 165.024 1094.13 Q168.658 1094.13 170.464 1090.59 Q172.292 1087.03 172.292 1079.92 Q172.292 1072.79 170.464 1069.25 Q168.658 1065.68 165.024 1065.68 M165.024 1061.98 Q170.834 1061.98 173.889 1066.59 Q176.968 1071.17 176.968 1079.92 Q176.968 1088.65 173.889 1093.25 Q170.834 1097.84 165.024 1097.84 Q159.214 1097.84 156.135 1093.25 Q153.079 1088.65 153.079 1079.92 Q153.079 1071.17 156.135 1066.59 Q159.214 1061.98 165.024 1061.98 Z" fill="#000000" fill-rule="nonzero" fill-opacity="1" /><path clip-path="url(#clip060)" d="M185.186 1091.29 L190.07 1091.29 L190.07 1097.17 L185.186 1097.17 L185.186 1091.29 Z" fill="#000000" fill-rule="nonzero" fill-opacity="1" /><path clip-path="url(#clip060)" d="M200.301 1062.61 L218.658 1062.61 L218.658 1066.54 L204.584 1066.54 L204.584 1075.01 Q205.602 1074.67 206.621 1074.5 Q207.639 1074.32 208.658 1074.32 Q214.445 1074.32 217.824 1077.49 Q221.204 1080.66 221.204 1086.08 Q221.204 1091.66 217.732 1094.76 Q214.26 1097.84 207.94 1097.84 Q205.764 1097.84 203.496 1097.47 Q201.25 1097.1 198.843 1096.35 L198.843 1091.66 Q200.926 1092.79 203.149 1093.35 Q205.371 1093.9 207.848 1093.9 Q211.852 1093.9 214.19 1091.79 Q216.528 1089.69 216.528 1086.08 Q216.528 1082.47 214.19 1080.36 Q211.852 1078.25 207.848 1078.25 Q205.973 1078.25 204.098 1078.67 Q202.246 1079.09 200.301 1079.97 L200.301 1062.61 Z" fill="#000000" fill-rule="nonzero" fill-opacity="1" /><path clip-path="url(#clip060)" d="M164.028 759.141 Q160.417 759.141 158.589 762.706 Q156.783 766.247 156.783 773.377 Q156.783 780.483 158.589 784.048 Q160.417 787.59 164.028 787.59 Q167.663 787.59 169.468 784.048 Q171.297 780.483 171.297 773.377 Q171.297 766.247 169.468 762.706 Q167.663 759.141 164.028 759.141 M164.028 755.437 Q169.839 755.437 172.894 760.044 Q175.973 764.627 175.973 773.377 Q175.973 782.104 172.894 786.71 Q169.839 791.293 164.028 791.293 Q158.218 791.293 155.14 786.71 Q152.084 782.104 152.084 773.377 Q152.084 764.627 155.14 760.044 Q158.218 755.437 164.028 755.437 Z" fill="#000000" fill-rule="nonzero" fill-opacity="1" /><path clip-path="url(#clip060)" d="M184.19 784.743 L189.075 784.743 L189.075 790.622 L184.19 790.622 L184.19 784.743 Z" fill="#000000" fill-rule="nonzero" fill-opacity="1" /><path clip-path="url(#clip060)" d="M209.26 759.141 Q205.649 759.141 203.82 762.706 Q202.014 766.247 202.014 773.377 Q202.014 780.483 203.82 784.048 Q205.649 787.59 209.26 787.59 Q212.894 787.59 214.699 784.048 Q216.528 780.483 216.528 773.377 Q216.528 766.247 214.699 762.706 Q212.894 759.141 209.26 759.141 M209.26 755.437 Q215.07 755.437 218.125 760.044 Q221.204 764.627 221.204 773.377 Q221.204 782.104 218.125 786.71 Q215.07 791.293 209.26 791.293 Q203.449 791.293 200.371 786.71 Q197.315 782.104 197.315 773.377 Q197.315 764.627 200.371 760.044 Q203.449 755.437 209.26 755.437 Z" fill="#000000" fill-rule="nonzero" fill-opacity="1" /><path clip-path="url(#clip060)" d="M165.024 452.598 Q161.413 452.598 159.584 456.163 Q157.778 459.704 157.778 466.834 Q157.778 473.94 159.584 477.505 Q161.413 481.047 165.024 481.047 Q168.658 481.047 170.464 477.505 Q172.292 473.94 172.292 466.834 Q172.292 459.704 170.464 456.163 Q168.658 452.598 165.024 452.598 M165.024 448.894 Q170.834 448.894 173.889 453.501 Q176.968 458.084 176.968 466.834 Q176.968 475.561 173.889 480.167 Q170.834 484.751 165.024 484.751 Q159.214 484.751 156.135 480.167 Q153.079 475.561 153.079 466.834 Q153.079 458.084 156.135 453.501 Q159.214 448.894 165.024 448.894 Z" fill="#000000" fill-rule="nonzero" fill-opacity="1" /><path clip-path="url(#clip060)" d="M185.186 478.2 L190.07 478.2 L190.07 484.079 L185.186 484.079 L185.186 478.2 Z" fill="#000000" fill-rule="nonzero" fill-opacity="1" /><path clip-path="url(#clip060)" d="M200.301 449.519 L218.658 449.519 L218.658 453.454 L204.584 453.454 L204.584 461.927 Q205.602 461.579 206.621 461.417 Q207.639 461.232 208.658 461.232 Q214.445 461.232 217.824 464.403 Q221.204 467.575 221.204 472.991 Q221.204 478.57 217.732 481.672 Q214.26 484.751 207.94 484.751 Q205.764 484.751 203.496 484.38 Q201.25 484.01 198.843 483.269 L198.843 478.57 Q200.926 479.704 203.149 480.26 Q205.371 480.815 207.848 480.815 Q211.852 480.815 214.19 478.709 Q216.528 476.602 216.528 472.991 Q216.528 469.38 214.19 467.274 Q211.852 465.167 207.848 465.167 Q205.973 465.167 204.098 465.584 Q202.246 466.001 200.301 466.88 L200.301 449.519 Z" fill="#000000" fill-rule="nonzero" fill-opacity="1" /><path clip-path="url(#clip060)" d="M154.839 173.601 L162.477 173.601 L162.477 147.236 L154.167 148.902 L154.167 144.643 L162.431 142.976 L167.107 142.976 L167.107 173.601 L174.746 173.601 L174.746 177.536 L154.839 177.536 L154.839 173.601 Z" fill="#000000" fill-rule="nonzero" fill-opacity="1" /><path clip-path="url(#clip060)" d="M184.19 171.657 L189.075 171.657 L189.075 177.536 L184.19 177.536 L184.19 171.657 Z" fill="#000000" fill-rule="nonzero" fill-opacity="1" /><path clip-path="url(#clip060)" d="M209.26 146.055 Q205.649 146.055 203.82 149.62 Q202.014 153.161 202.014 160.291 Q202.014 167.397 203.82 170.962 Q205.649 174.504 209.26 174.504 Q212.894 174.504 214.699 170.962 Q216.528 167.397 216.528 160.291 Q216.528 153.161 214.699 149.62 Q212.894 146.055 209.26 146.055 M209.26 142.351 Q215.07 142.351 218.125 146.958 Q221.204 151.541 221.204 160.291 Q221.204 169.018 218.125 173.624 Q215.07 178.208 209.26 178.208 Q203.449 178.208 200.371 173.624 Q197.315 169.018 197.315 160.291 Q197.315 151.541 200.371 146.958 Q203.449 142.351 209.26 142.351 Z" fill="#000000" fill-rule="nonzero" fill-opacity="1" /><path clip-path="url(#clip060)" d="M67.3143 771.639 Q73.68 774.122 75.6216 776.477 Q77.5631 778.832 77.5631 782.779 L77.5631 787.458 L72.6615 787.458 L72.6615 784.02 Q72.6615 781.601 71.5157 780.265 Q70.3699 778.928 66.1048 777.305 L63.4312 776.254 L28.3562 790.673 L28.3562 784.466 L56.238 773.326 L28.3562 762.186 L28.3562 755.979 L67.3143 771.639 Z" fill="#000000" fill-rule="nonzero" fill-opacity="1" /><path clip-path="url(#clip060)" d="M817.859 12.096 L869.022 12.096 L869.022 18.9825 L847.552 18.9825 L847.552 72.576 L839.329 72.576 L839.329 18.9825 L817.859 18.9825 L817.859 12.096 Z" fill="#000000" fill-rule="nonzero" fill-opacity="1" /><path clip-path="url(#clip060)" d="M890.694 34.1734 Q889.438 33.4443 887.939 33.1202 Q886.481 32.7556 884.699 32.7556 Q878.379 32.7556 874.976 36.8875 Q871.614 40.9789 871.614 48.6757 L871.614 72.576 L864.12 72.576 L864.12 27.2059 L871.614 27.2059 L871.614 34.2544 Q873.964 30.1225 877.731 28.1376 Q881.498 26.1121 886.886 26.1121 Q887.656 26.1121 888.588 26.2337 Q889.519 26.3147 890.653 26.5172 L890.694 34.1734 Z" fill="#000000" fill-rule="nonzero" fill-opacity="1" /><path clip-path="url(#clip060)" d="M898.512 27.2059 L905.966 27.2059 L905.966 72.576 L898.512 72.576 L898.512 27.2059 M898.512 9.54393 L905.966 9.54393 L905.966 18.9825 L898.512 18.9825 L898.512 9.54393 Z" fill="#000000" fill-rule="nonzero" fill-opacity="1" /><path clip-path="url(#clip060)" d="M951.417 49.3643 Q951.417 41.2625 948.055 36.8065 Q944.733 32.3505 938.697 32.3505 Q932.702 32.3505 929.34 36.8065 Q926.018 41.2625 926.018 49.3643 Q926.018 57.4256 929.34 61.8816 Q932.702 66.3376 938.697 66.3376 Q944.733 66.3376 948.055 61.8816 Q951.417 57.4256 951.417 49.3643 M958.871 66.9452 Q958.871 78.5308 953.726 84.1616 Q948.581 89.8329 937.968 89.8329 Q934.039 89.8329 930.555 89.2252 Q927.071 88.6581 923.79 87.4428 L923.79 80.1917 Q927.071 81.9741 930.271 82.8248 Q933.472 83.6755 936.793 83.6755 Q944.125 83.6755 947.771 79.8271 Q951.417 76.0193 951.417 68.282 L951.417 64.5957 Q949.108 68.6061 945.503 70.5911 Q941.897 72.576 936.874 72.576 Q928.529 72.576 923.425 66.2161 Q918.321 59.8562 918.321 49.3643 Q918.321 38.832 923.425 32.472 Q928.529 26.1121 936.874 26.1121 Q941.897 26.1121 945.503 28.0971 Q949.108 30.082 951.417 34.0924 L951.417 27.2059 L958.871 27.2059 L958.871 66.9452 Z" fill="#000000" fill-rule="nonzero" fill-opacity="1" /><path clip-path="url(#clip060)" d="M991.805 32.4315 Q985.809 32.4315 982.325 37.1306 Q978.842 41.7891 978.842 49.9314 Q978.842 58.0738 982.285 62.7728 Q985.769 67.4314 991.805 67.4314 Q997.759 67.4314 1001.24 62.7323 Q1004.73 58.0333 1004.73 49.9314 Q1004.73 41.8701 1001.24 37.1711 Q997.759 32.4315 991.805 32.4315 M991.805 26.1121 Q1001.53 26.1121 1007.08 32.4315 Q1012.63 38.7509 1012.63 49.9314 Q1012.63 61.0714 1007.08 67.4314 Q1001.53 73.7508 991.805 73.7508 Q982.042 73.7508 976.492 67.4314 Q970.983 61.0714 970.983 49.9314 Q970.983 38.7509 976.492 32.4315 Q982.042 26.1121 991.805 26.1121 Z" fill="#000000" fill-rule="nonzero" fill-opacity="1" /><path clip-path="url(#clip060)" d="M1062.7 45.1919 L1062.7 72.576 L1055.24 72.576 L1055.24 45.4349 Q1055.24 38.994 1052.73 35.7938 Q1050.22 32.5936 1045.2 32.5936 Q1039.16 32.5936 1035.68 36.4419 Q1032.19 40.2903 1032.19 46.9338 L1032.19 72.576 L1024.7 72.576 L1024.7 27.2059 L1032.19 27.2059 L1032.19 34.2544 Q1034.87 30.163 1038.47 28.1376 Q1042.12 26.1121 1046.86 26.1121 Q1054.67 26.1121 1058.68 30.9732 Q1062.7 35.7938 1062.7 45.1919 Z" fill="#000000" fill-rule="nonzero" fill-opacity="1" /><path clip-path="url(#clip060)" d="M1095.14 32.4315 Q1089.15 32.4315 1085.66 37.1306 Q1082.18 41.7891 1082.18 49.9314 Q1082.18 58.0738 1085.62 62.7728 Q1089.11 67.4314 1095.14 67.4314 Q1101.1 67.4314 1104.58 62.7323 Q1108.07 58.0333 1108.07 49.9314 Q1108.07 41.8701 1104.58 37.1711 Q1101.1 32.4315 1095.14 32.4315 M1095.14 26.1121 Q1104.87 26.1121 1110.42 32.4315 Q1115.96 38.7509 1115.96 49.9314 Q1115.96 61.0714 1110.42 67.4314 Q1104.87 73.7508 1095.14 73.7508 Q1085.38 73.7508 1079.83 67.4314 Q1074.32 61.0714 1074.32 49.9314 Q1074.32 38.7509 1079.83 32.4315 Q1085.38 26.1121 1095.14 26.1121 Z" fill="#000000" fill-rule="nonzero" fill-opacity="1" /><path clip-path="url(#clip060)" d="M1163.64 35.9153 Q1166.44 30.8922 1170.33 28.5022 Q1174.22 26.1121 1179.48 26.1121 Q1186.57 26.1121 1190.42 31.0947 Q1194.27 36.0368 1194.27 45.1919 L1194.27 72.576 L1186.77 72.576 L1186.77 45.4349 Q1186.77 38.913 1184.47 35.7533 Q1182.16 32.5936 1177.42 32.5936 Q1171.62 32.5936 1168.26 36.4419 Q1164.9 40.2903 1164.9 46.9338 L1164.9 72.576 L1157.41 72.576 L1157.41 45.4349 Q1157.41 38.8725 1155.1 35.7533 Q1152.79 32.5936 1147.97 32.5936 Q1142.26 32.5936 1138.89 36.4824 Q1135.53 40.3308 1135.53 46.9338 L1135.53 72.576 L1128.04 72.576 L1128.04 27.2059 L1135.53 27.2059 L1135.53 34.2544 Q1138.08 30.082 1141.65 28.0971 Q1145.21 26.1121 1150.11 26.1121 Q1155.06 26.1121 1158.5 28.6237 Q1161.98 31.1352 1163.64 35.9153 Z" fill="#000000" fill-rule="nonzero" fill-opacity="1" /><path clip-path="url(#clip060)" d="M1247.94 48.0275 L1247.94 51.6733 L1213.67 51.6733 Q1214.16 59.3701 1218.29 63.421 Q1222.46 67.4314 1229.88 67.4314 Q1234.17 67.4314 1238.18 66.3781 Q1242.23 65.3249 1246.2 63.2184 L1246.2 70.267 Q1242.19 71.9684 1237.98 72.8596 Q1233.77 73.7508 1229.43 73.7508 Q1218.57 73.7508 1212.21 67.4314 Q1205.89 61.1119 1205.89 50.3365 Q1205.89 39.1965 1211.89 32.6746 Q1217.93 26.1121 1228.13 26.1121 Q1237.29 26.1121 1242.6 32.0264 Q1247.94 37.9003 1247.94 48.0275 M1240.49 45.84 Q1240.41 39.7232 1237.05 36.0774 Q1233.72 32.4315 1228.22 32.4315 Q1221.98 32.4315 1218.21 35.9558 Q1214.48 39.4801 1213.92 45.8805 L1240.49 45.84 Z" fill="#000000" fill-rule="nonzero" fill-opacity="1" /><path clip-path="url(#clip060)" d="M1267.55 14.324 L1267.55 27.2059 L1282.9 27.2059 L1282.9 32.9987 L1267.55 32.9987 L1267.55 57.6282 Q1267.55 63.1779 1269.05 64.7578 Q1270.59 66.3376 1275.25 66.3376 L1282.9 66.3376 L1282.9 72.576 L1275.25 72.576 Q1266.62 72.576 1263.34 69.3758 Q1260.06 66.1351 1260.06 57.6282 L1260.06 32.9987 L1254.59 32.9987 L1254.59 27.2059 L1260.06 27.2059 L1260.06 14.324 L1267.55 14.324 Z" fill="#000000" fill-rule="nonzero" fill-opacity="1" /><path clip-path="url(#clip060)" d="M1319 34.1734 Q1317.74 33.4443 1316.24 33.1202 Q1314.78 32.7556 1313 32.7556 Q1306.68 32.7556 1303.28 36.8875 Q1299.92 40.9789 1299.92 48.6757 L1299.92 72.576 L1292.42 72.576 L1292.42 27.2059 L1299.92 27.2059 L1299.92 34.2544 Q1302.27 30.1225 1306.03 28.1376 Q1309.8 26.1121 1315.19 26.1121 Q1315.96 26.1121 1316.89 26.2337 Q1317.82 26.3147 1318.96 26.5172 L1319 34.1734 Z" fill="#000000" fill-rule="nonzero" fill-opacity="1" /><path clip-path="url(#clip060)" d="M1326.81 27.2059 L1334.27 27.2059 L1334.27 72.576 L1326.81 72.576 L1326.81 27.2059 M1326.81 9.54393 L1334.27 9.54393 L1334.27 18.9825 L1326.81 18.9825 L1326.81 9.54393 Z" fill="#000000" fill-rule="nonzero" fill-opacity="1" /><path clip-path="url(#clip060)" d="M1382.51 28.9478 L1382.51 35.9153 Q1379.35 34.1734 1376.15 33.3227 Q1372.99 32.4315 1369.75 32.4315 Q1362.5 32.4315 1358.49 37.0496 Q1354.48 41.6271 1354.48 49.9314 Q1354.48 58.2358 1358.49 62.8538 Q1362.5 67.4314 1369.75 67.4314 Q1372.99 67.4314 1376.15 66.5807 Q1379.35 65.6895 1382.51 63.9476 L1382.51 70.8341 Q1379.4 72.2924 1376.03 73.0216 Q1372.71 73.7508 1368.94 73.7508 Q1358.69 73.7508 1352.66 67.3098 Q1346.62 60.8689 1346.62 49.9314 Q1346.62 38.832 1352.7 32.472 Q1358.82 26.1121 1369.43 26.1121 Q1372.87 26.1121 1376.15 26.8413 Q1379.44 27.5299 1382.51 28.9478 Z" fill="#000000" fill-rule="nonzero" fill-opacity="1" /><path clip-path="url(#clip060)" d="M1444.82 9.54393 L1444.82 15.7418 L1437.69 15.7418 Q1433.68 15.7418 1432.1 17.3622 Q1430.56 18.9825 1430.56 23.1955 L1430.56 27.2059 L1442.83 27.2059 L1442.83 32.9987 L1430.56 32.9987 L1430.56 72.576 L1423.06 72.576 L1423.06 32.9987 L1415.93 32.9987 L1415.93 27.2059 L1423.06 27.2059 L1423.06 24.0462 Q1423.06 16.471 1426.59 13.0277 Q1430.11 9.54393 1437.77 9.54393 L1444.82 9.54393 Z" fill="#000000" fill-rule="nonzero" fill-opacity="1" /><path clip-path="url(#clip060)" d="M1450.29 54.671 L1450.29 27.2059 L1457.74 27.2059 L1457.74 54.3874 Q1457.74 60.8284 1460.25 64.0691 Q1462.76 67.2693 1467.79 67.2693 Q1473.82 67.2693 1477.31 63.421 Q1480.83 59.5726 1480.83 52.9291 L1480.83 27.2059 L1488.28 27.2059 L1488.28 72.576 L1480.83 72.576 L1480.83 65.6084 Q1478.12 69.7404 1474.51 71.7658 Q1470.95 73.7508 1466.21 73.7508 Q1458.39 73.7508 1454.34 68.8897 Q1450.29 64.0286 1450.29 54.671 M1469.04 26.1121 L1469.04 26.1121 Z" fill="#000000" fill-rule="nonzero" fill-opacity="1" /><path clip-path="url(#clip060)" d="M1541.35 45.1919 L1541.35 72.576 L1533.9 72.576 L1533.9 45.4349 Q1533.9 38.994 1531.39 35.7938 Q1528.87 32.5936 1523.85 32.5936 Q1517.81 32.5936 1514.33 36.4419 Q1510.85 40.2903 1510.85 46.9338 L1510.85 72.576 L1503.35 72.576 L1503.35 27.2059 L1510.85 27.2059 L1510.85 34.2544 Q1513.52 30.163 1517.13 28.1376 Q1520.77 26.1121 1525.51 26.1121 Q1533.33 26.1121 1537.34 30.9732 Q1541.35 35.7938 1541.35 45.1919 Z" fill="#000000" fill-rule="nonzero" fill-opacity="1" /><path clip-path="url(#clip060)" d="M1588.87 28.9478 L1588.87 35.9153 Q1585.71 34.1734 1582.51 33.3227 Q1579.35 32.4315 1576.11 32.4315 Q1568.86 32.4315 1564.85 37.0496 Q1560.84 41.6271 1560.84 49.9314 Q1560.84 58.2358 1564.85 62.8538 Q1568.86 67.4314 1576.11 67.4314 Q1579.35 67.4314 1582.51 66.5807 Q1585.71 65.6895 1588.87 63.9476 L1588.87 70.8341 Q1585.75 72.2924 1582.39 73.0216 Q1579.06 73.7508 1575.3 73.7508 Q1565.05 73.7508 1559.01 67.3098 Q1552.98 60.8689 1552.98 49.9314 Q1552.98 38.832 1559.05 32.472 Q1565.17 26.1121 1575.78 26.1121 Q1579.23 26.1121 1582.51 26.8413 Q1585.79 27.5299 1588.87 28.9478 Z" fill="#000000" fill-rule="nonzero" fill-opacity="1" /><path clip-path="url(#clip060)" d="M1609.2 14.324 L1609.2 27.2059 L1624.56 27.2059 L1624.56 32.9987 L1609.2 32.9987 L1609.2 57.6282 Q1609.2 63.1779 1610.7 64.7578 Q1612.24 66.3376 1616.9 66.3376 L1624.56 66.3376 L1624.56 72.576 L1616.9 72.576 Q1608.27 72.576 1604.99 69.3758 Q1601.71 66.1351 1601.71 57.6282 L1601.71 32.9987 L1596.24 32.9987 L1596.24 27.2059 L1601.71 27.2059 L1601.71 14.324 L1609.2 14.324 Z" fill="#000000" fill-rule="nonzero" fill-opacity="1" /><path clip-path="url(#clip060)" d="M1634.36 27.2059 L1641.81 27.2059 L1641.81 72.576 L1634.36 72.576 L1634.36 27.2059 M1634.36 9.54393 L1641.81 9.54393 L1641.81 18.9825 L1634.36 18.9825 L1634.36 9.54393 Z" fill="#000000" fill-rule="nonzero" fill-opacity="1" /><path clip-path="url(#clip060)" d="M1674.99 32.4315 Q1668.99 32.4315 1665.51 37.1306 Q1662.03 41.7891 1662.03 49.9314 Q1662.03 58.0738 1665.47 62.7728 Q1668.95 67.4314 1674.99 67.4314 Q1680.94 67.4314 1684.43 62.7323 Q1687.91 58.0333 1687.91 49.9314 Q1687.91 41.8701 1684.43 37.1711 Q1680.94 32.4315 1674.99 32.4315 M1674.99 26.1121 Q1684.71 26.1121 1690.26 32.4315 Q1695.81 38.7509 1695.81 49.9314 Q1695.81 61.0714 1690.26 67.4314 Q1684.71 73.7508 1674.99 73.7508 Q1665.23 73.7508 1659.68 67.4314 Q1654.17 61.0714 1654.17 49.9314 Q1654.17 38.7509 1659.68 32.4315 Q1665.23 26.1121 1674.99 26.1121 Z" fill="#000000" fill-rule="nonzero" fill-opacity="1" /><path clip-path="url(#clip060)" d="M1745.88 45.1919 L1745.88 72.576 L1738.43 72.576 L1738.43 45.4349 Q1738.43 38.994 1735.92 35.7938 Q1733.4 32.5936 1728.38 32.5936 Q1722.34 32.5936 1718.86 36.4419 Q1715.38 40.2903 1715.38 46.9338 L1715.38 72.576 L1707.88 72.576 L1707.88 27.2059 L1715.38 27.2059 L1715.38 34.2544 Q1718.05 30.163 1721.66 28.1376 Q1725.3 26.1121 1730.04 26.1121 Q1737.86 26.1121 1741.87 30.9732 Q1745.88 35.7938 1745.88 45.1919 Z" fill="#000000" fill-rule="nonzero" fill-opacity="1" /><path clip-path="url(#clip060)" d="M1789.67 28.5427 L1789.67 35.5912 Q1786.51 33.9709 1783.11 33.1607 Q1779.71 32.3505 1776.06 32.3505 Q1770.51 32.3505 1767.71 34.0519 Q1764.96 35.7533 1764.96 39.156 Q1764.96 41.7486 1766.95 43.2475 Q1768.93 44.7058 1774.93 46.0426 L1777.48 46.6097 Q1785.42 48.3111 1788.74 51.4303 Q1792.1 54.509 1792.1 60.0587 Q1792.1 66.3781 1787.08 70.0644 Q1782.1 73.7508 1773.35 73.7508 Q1769.7 73.7508 1765.73 73.0216 Q1761.8 72.3329 1757.43 70.9151 L1757.43 63.2184 Q1761.56 65.3654 1765.57 66.4591 Q1769.58 67.5124 1773.51 67.5124 Q1778.77 67.5124 1781.61 65.73 Q1784.44 63.9071 1784.44 60.6258 Q1784.44 57.5877 1782.38 55.9673 Q1780.35 54.3469 1773.43 52.8481 L1770.83 52.2405 Q1763.91 50.7821 1760.83 47.7845 Q1757.75 44.7463 1757.75 39.4801 Q1757.75 33.0797 1762.29 29.5959 Q1766.82 26.1121 1775.17 26.1121 Q1779.3 26.1121 1782.95 26.7198 Q1786.59 27.3274 1789.67 28.5427 Z" fill="#000000" fill-rule="nonzero" fill-opacity="1" /><polyline clip-path="url(#clip062)" style="stroke:#009af9; stroke-linecap:round; stroke-linejoin:round; stroke-width:12; stroke-opacity:1; fill:none" points="316.512,773.342 336.481,711.52 356.45,650.327 376.419,590.389 396.388,532.316 416.357,476.7 436.326,424.108 456.295,375.076 476.264,330.104 496.234,289.651 516.203,254.129 536.172,223.899 556.141,199.271 576.11,180.496 596.079,167.764 616.048,161.205 636.017,160.887 655.986,166.813 675.955,178.921 695.924,197.089 715.893,221.132 735.862,250.805 755.831,285.804 775.8,325.773 795.769,370.306 815.738,418.946 835.707,471.2 855.676,526.534 875.645,584.384 895.614,644.16 915.584,705.253 935.553,767.04 955.522,828.892 975.491,890.177 995.46,950.271 1015.43,1008.56 1035.4,1064.45 1055.37,1117.38 1075.34,1166.8 1095.3,1212.2 1115.27,1253.14 1135.24,1289.18 1155.21,1319.96 1175.18,1345.17 1195.15,1364.55 1215.12,1377.91 1235.09,1385.1 1255.06,1386.05 1275.03,1380.76 1295,1369.28 1314.96,1351.72 1334.93,1328.26 1354.9,1299.15 1374.87,1264.68 1394.84,1225.19 1414.81,1181.11 1434.78,1132.86 1454.75,1080.95 1474.72,1025.91 1494.69,968.286 1514.65,908.678 1534.62,847.691 1554.59,785.946 1574.56,724.072 1594.53,662.7 1614.5,602.457 1634.47,543.955 1654.44,487.792 1674.41,434.54 1694.38,384.742 1714.35,338.905 1734.31,297.498 1754.28,260.941 1774.25,229.607 1794.22,203.817 1814.19,183.833 1834.16,169.858 1854.13,162.036 1874.1,160.445 1894.07,165.102 1914.04,175.961 1934,192.909 1953.97,215.774 1973.94,244.323 1993.91,278.265 2013.88,317.254 2033.85,360.893 2053.82,408.737 2073.79,460.297 2093.76,515.049 2113.73,572.434 2133.7,631.866 2153.66,692.742 2173.63,754.438 2193.6,816.328 2213.57,877.779 2233.54,938.166 2253.51,996.873 2273.48,1053.3 2293.45,1106.87 "/>
<polyline clip-path="url(#clip062)" style="stroke:#e26f46; stroke-linecap:round; stroke-linejoin:round; stroke-width:12; stroke-opacity:1; fill:none" points="316.512,160.256 336.481,163.381 356.45,172.724 376.419,188.191 396.388,209.622 416.357,236.8 436.326,269.448 456.295,307.233 476.264,349.769 496.234,396.623 516.203,447.318 536.172,501.337 556.141,558.128 576.11,617.114 596.079,677.692 616.048,739.245 636.017,801.145 655.986,862.763 675.955,923.468 695.924,982.644 715.893,1039.69 735.862,1094.01 755.831,1145.07 775.8,1192.34 795.769,1235.33 815.738,1273.62 835.707,1306.81 855.676,1334.56 875.645,1356.58 895.614,1372.66 915.584,1382.64 935.553,1386.4 955.522,1383.91 975.491,1375.19 995.46,1360.34 1015.43,1339.51 1035.4,1312.91 1055.37,1280.8 1075.34,1243.52 1095.3,1201.45 1115.27,1155.01 1135.24,1104.69 1155.21,1050.98 1175.18,994.446 1195.15,935.657 1215.12,875.213 1235.09,813.73 1255.06,751.836 1275.03,690.161 1295,629.334 1314.96,569.975 1334.93,512.69 1354.9,458.061 1374.87,406.647 1394.84,358.97 1414.81,315.518 1434.78,276.734 1454.75,243.012 1474.72,214.696 1494.69,192.075 1514.65,175.38 1534.62,164.781 1554.59,160.386 1574.56,162.239 1594.53,170.323 1614.5,184.553 1634.47,204.786 1654.44,230.815 1674.41,262.375 1694.38,299.144 1714.35,340.747 1734.31,386.76 1754.28,436.713 1774.25,490.099 1794.22,546.372 1814.19,604.959 1834.16,665.263 1854.13,726.668 1874.1,788.549 1894.07,850.275 1914.04,911.217 1934,970.753 1953.97,1028.28 1973.94,1083.2 1993.91,1134.97 2013.88,1183.05 2033.85,1226.95 2053.82,1266.23 2073.79,1300.48 2093.76,1329.36 2113.73,1352.57 2133.7,1369.88 2153.66,1381.11 2173.63,1386.14 2193.6,1384.92 2213.57,1377.47 2233.54,1363.86 2253.51,1344.23 2273.48,1318.78 2293.45,1287.77 "/>
<path clip-path="url(#clip060)" d="M327.056 1379.86 L674.735 1379.86 L674.735 1224.34 L327.056 1224.34  Z" fill="#ffffff" fill-rule="evenodd" fill-opacity="1"/>
<polyline clip-path="url(#clip060)" style="stroke:#000000; stroke-linecap:round; stroke-linejoin:round; stroke-width:4; stroke-opacity:1; fill:none" points="327.056,1379.86 674.735,1379.86 674.735,1224.34 327.056,1224.34 327.056,1379.86 "/>
<polyline clip-path="url(#clip060)" style="stroke:#009af9; stroke-linecap:round; stroke-linejoin:round; stroke-width:12; stroke-opacity:1; fill:none" points="350.34,1276.18 490.043,1276.18 "/>
<path clip-path="url(#clip060)" d="M531.753 1268.29 L531.753 1272.32 Q529.947 1271.4 528.003 1270.93 Q526.058 1270.47 523.975 1270.47 Q520.804 1270.47 519.207 1271.44 Q517.633 1272.41 517.633 1274.36 Q517.633 1275.84 518.767 1276.7 Q519.901 1277.53 523.327 1278.29 L524.785 1278.62 Q529.322 1279.59 531.22 1281.37 Q533.142 1283.13 533.142 1286.3 Q533.142 1289.91 530.271 1292.02 Q527.424 1294.13 522.424 1294.13 Q520.341 1294.13 518.072 1293.71 Q515.827 1293.32 513.327 1292.51 L513.327 1288.11 Q515.688 1289.34 517.98 1289.96 Q520.271 1290.56 522.517 1290.56 Q525.526 1290.56 527.146 1289.54 Q528.767 1288.5 528.767 1286.63 Q528.767 1284.89 527.586 1283.97 Q526.429 1283.04 522.471 1282.18 L520.989 1281.84 Q517.031 1281 515.271 1279.29 Q513.512 1277.55 513.512 1274.54 Q513.512 1270.89 516.105 1268.9 Q518.697 1266.91 523.466 1266.91 Q525.827 1266.91 527.91 1267.25 Q529.994 1267.6 531.753 1268.29 Z" fill="#000000" fill-rule="nonzero" fill-opacity="1" /><path clip-path="url(#clip060)" d="M539.924 1267.53 L544.183 1267.53 L544.183 1293.46 L539.924 1293.46 L539.924 1267.53 M539.924 1257.44 L544.183 1257.44 L544.183 1262.83 L539.924 1262.83 L539.924 1257.44 Z" fill="#000000" fill-rule="nonzero" fill-opacity="1" /><path clip-path="url(#clip060)" d="M574.646 1277.81 L574.646 1293.46 L570.387 1293.46 L570.387 1277.95 Q570.387 1274.27 568.952 1272.44 Q567.517 1270.61 564.646 1270.61 Q561.197 1270.61 559.206 1272.81 Q557.216 1275.01 557.216 1278.8 L557.216 1293.46 L552.933 1293.46 L552.933 1267.53 L557.216 1267.53 L557.216 1271.56 Q558.743 1269.22 560.804 1268.06 Q562.887 1266.91 565.595 1266.91 Q570.063 1266.91 572.354 1269.68 Q574.646 1272.44 574.646 1277.81 Z" fill="#000000" fill-rule="nonzero" fill-opacity="1" /><path clip-path="url(#clip060)" d="M593.373 1257.48 Q590.271 1262.81 588.766 1268.02 Q587.262 1273.22 587.262 1278.57 Q587.262 1283.92 588.766 1289.17 Q590.294 1294.41 593.373 1299.71 L589.669 1299.71 Q586.197 1294.27 584.461 1289.01 Q582.748 1283.76 582.748 1278.57 Q582.748 1273.41 584.461 1268.18 Q586.174 1262.95 589.669 1257.48 L593.373 1257.48 Z" fill="#000000" fill-rule="nonzero" fill-opacity="1" /><path clip-path="url(#clip060)" d="M623.188 1267.53 L613.813 1280.15 L623.674 1293.46 L618.651 1293.46 L611.104 1283.27 L603.558 1293.46 L598.535 1293.46 L608.604 1279.89 L599.391 1267.53 L604.415 1267.53 L611.289 1276.77 L618.164 1267.53 L623.188 1267.53 Z" fill="#000000" fill-rule="nonzero" fill-opacity="1" /><path clip-path="url(#clip060)" d="M629.021 1257.48 L632.725 1257.48 Q636.197 1262.95 637.91 1268.18 Q639.646 1273.41 639.646 1278.57 Q639.646 1283.76 637.91 1289.01 Q636.197 1294.27 632.725 1299.71 L629.021 1299.71 Q632.1 1294.41 633.604 1289.17 Q635.132 1283.92 635.132 1278.57 Q635.132 1273.22 633.604 1268.02 Q632.1 1262.81 629.021 1257.48 Z" fill="#000000" fill-rule="nonzero" fill-opacity="1" /><polyline clip-path="url(#clip060)" style="stroke:#e26f46; stroke-linecap:round; stroke-linejoin:round; stroke-width:12; stroke-opacity:1; fill:none" points="350.34,1328.02 490.043,1328.02 "/>
<path clip-path="url(#clip060)" d="M533.836 1320.37 L533.836 1324.35 Q532.031 1323.35 530.202 1322.87 Q528.396 1322.36 526.545 1322.36 Q522.401 1322.36 520.109 1325 Q517.818 1327.61 517.818 1332.36 Q517.818 1337.1 520.109 1339.74 Q522.401 1342.36 526.545 1342.36 Q528.396 1342.36 530.202 1341.87 Q532.031 1341.36 533.836 1340.37 L533.836 1344.3 Q532.054 1345.13 530.133 1345.55 Q528.234 1345.97 526.082 1345.97 Q520.225 1345.97 516.776 1342.29 Q513.327 1338.61 513.327 1332.36 Q513.327 1326.01 516.799 1322.38 Q520.295 1318.75 526.359 1318.75 Q528.327 1318.75 530.202 1319.16 Q532.077 1319.56 533.836 1320.37 Z" fill="#000000" fill-rule="nonzero" fill-opacity="1" /><path clip-path="url(#clip060)" d="M551.29 1322.36 Q547.864 1322.36 545.873 1325.04 Q543.882 1327.7 543.882 1332.36 Q543.882 1337.01 545.85 1339.69 Q547.841 1342.36 551.29 1342.36 Q554.693 1342.36 556.683 1339.67 Q558.674 1336.99 558.674 1332.36 Q558.674 1327.75 556.683 1325.06 Q554.693 1322.36 551.29 1322.36 M551.29 1318.75 Q556.845 1318.75 560.017 1322.36 Q563.188 1325.97 563.188 1332.36 Q563.188 1338.72 560.017 1342.36 Q556.845 1345.97 551.29 1345.97 Q545.711 1345.97 542.54 1342.36 Q539.392 1338.72 539.392 1332.36 Q539.392 1325.97 542.54 1322.36 Q545.711 1318.75 551.29 1318.75 Z" fill="#000000" fill-rule="nonzero" fill-opacity="1" /><path clip-path="url(#clip060)" d="M586.776 1320.13 L586.776 1324.16 Q584.97 1323.24 583.026 1322.77 Q581.081 1322.31 578.998 1322.31 Q575.827 1322.31 574.229 1323.28 Q572.655 1324.25 572.655 1326.2 Q572.655 1327.68 573.79 1328.54 Q574.924 1329.37 578.35 1330.13 L579.808 1330.46 Q584.345 1331.43 586.243 1333.21 Q588.165 1334.97 588.165 1338.14 Q588.165 1341.75 585.294 1343.86 Q582.447 1345.97 577.447 1345.97 Q575.364 1345.97 573.095 1345.55 Q570.85 1345.16 568.35 1344.35 L568.35 1339.95 Q570.711 1341.18 573.003 1341.8 Q575.294 1342.4 577.54 1342.4 Q580.549 1342.4 582.169 1341.38 Q583.79 1340.34 583.79 1338.47 Q583.79 1336.73 582.609 1335.81 Q581.452 1334.88 577.493 1334.02 L576.012 1333.68 Q572.054 1332.84 570.294 1331.13 Q568.535 1329.39 568.535 1326.38 Q568.535 1322.73 571.128 1320.74 Q573.72 1318.75 578.489 1318.75 Q580.85 1318.75 582.933 1319.09 Q585.016 1319.44 586.776 1320.13 Z" fill="#000000" fill-rule="nonzero" fill-opacity="1" /><path clip-path="url(#clip060)" d="M605.178 1309.32 Q602.077 1314.65 600.572 1319.86 Q599.067 1325.06 599.067 1330.41 Q599.067 1335.76 600.572 1341.01 Q602.1 1346.25 605.178 1351.55 L601.475 1351.55 Q598.003 1346.11 596.266 1340.85 Q594.553 1335.6 594.553 1330.41 Q594.553 1325.25 596.266 1320.02 Q597.979 1314.79 601.475 1309.32 L605.178 1309.32 Z" fill="#000000" fill-rule="nonzero" fill-opacity="1" /><path clip-path="url(#clip060)" d="M634.993 1319.37 L625.618 1331.99 L635.479 1345.3 L630.456 1345.3 L622.91 1335.11 L615.364 1345.3 L610.34 1345.3 L620.41 1331.73 L611.197 1319.37 L616.22 1319.37 L623.095 1328.61 L629.97 1319.37 L634.993 1319.37 Z" fill="#000000" fill-rule="nonzero" fill-opacity="1" /><path clip-path="url(#clip060)" d="M640.826 1309.32 L644.53 1309.32 Q648.002 1314.79 649.715 1320.02 Q651.451 1325.25 651.451 1330.41 Q651.451 1335.6 649.715 1340.85 Q648.002 1346.11 644.53 1351.55 L640.826 1351.55 Q643.905 1346.25 645.41 1341.01 Q646.937 1335.76 646.937 1330.41 Q646.937 1325.06 645.41 1319.86 Q643.905 1314.65 640.826 1309.32 Z" fill="#000000" fill-rule="nonzero" fill-opacity="1" /></svg>
